M48
; DRILL file {KiCad 8.0.7} date 2025-02-11T00:04:36+0900
; FORMAT={-:-/ absolute / inch / decimal}
; #@! TF.CreationDate,2025-02-11T00:04:36+09:00
; #@! TF.GenerationSoftware,Kicad,Pcbnew,8.0.7
; #@! TF.FileFunction,NonPlated,1,2,NPTH
FMAT,2
INCH
; #@! TA.AperFunction,NonPlated,NPTH,ComponentDrill
T1C0.0787
; #@! TA.AperFunction,NonPlated,NPTH,ComponentDrill
T2C0.1378
%
G90
G05
T1
X1.0118Y-1.1774
X1.0118Y-2.3585
X1.0118Y-3.5396
X1.3504Y-1.1774
X1.3504Y-2.3585
X1.3504Y-3.5396
X2.1929Y-1.1774
X2.1929Y-2.3585
X2.1929Y-3.5396
X2.5315Y-1.1774
X2.5315Y-2.3585
X2.5315Y-3.5396
X3.374Y-1.1774
X3.374Y-2.3585
X3.374Y-3.5396
X3.7126Y-1.1774
X3.7126Y-2.3585
X3.7126Y-3.5396
T2
X0.7087Y-0.7087
X0.7087Y-1.6535
X0.7087Y-1.8898
X0.7087Y-2.8346
X0.7087Y-3.0709
X0.7087Y-4.0157
X1.6535Y-0.7087
X1.6535Y-1.6535
X1.6535Y-1.8898
X1.6535Y-2.8346
X1.6535Y-3.0709
X1.6535Y-4.0157
X1.8898Y-0.7087
X1.8898Y-1.6535
X1.8898Y-1.8898
X1.8898Y-2.8346
X1.8898Y-3.0709
X1.8898Y-4.0157
X2.8346Y-0.7087
X2.8346Y-1.6535
X2.8346Y-1.8898
X2.8346Y-2.8346
X2.8346Y-3.0709
X2.8346Y-4.0157
X3.0709Y-0.7087
X3.0709Y-1.6535
X3.0709Y-1.8898
X3.0709Y-2.8346
X3.0709Y-3.0709
X3.0709Y-4.0157
X4.0157Y-0.7087
X4.0157Y-1.6535
X4.0157Y-1.8898
X4.0157Y-2.8346
X4.0157Y-3.0709
X4.0157Y-4.0157
M30
