M48
; DRILL file {KiCad 8.0.7} date 2025-02-11T00:04:36+0900
; FORMAT={-:-/ absolute / inch / decimal}
; #@! TF.CreationDate,2025-02-11T00:04:36+09:00
; #@! TF.GenerationSoftware,Kicad,Pcbnew,8.0.7
; #@! TF.FileFunction,Plated,1,2,PTH
FMAT,2
INCH
; #@! TA.AperFunction,Plated,PTH,ComponentDrill
T1C0.0394
; #@! TA.AperFunction,Plated,PTH,ComponentDrill
T2C0.0472
; #@! TA.AperFunction,Plated,PTH,ComponentDrill
T3C0.0591
%
G90
G05
T1
X0.6811Y-0.9323
X0.6811Y-1.0323
X0.6811Y-1.1323
X0.6811Y-1.2323
X0.6811Y-1.3323
X0.6811Y-1.4323
X0.6811Y-2.1134
X0.6811Y-2.2134
X0.6811Y-2.3134
X0.6811Y-2.4134
X0.6811Y-2.5134
X0.6811Y-2.6134
X0.6811Y-3.2945
X0.6811Y-3.3945
X0.6811Y-3.4945
X0.6811Y-3.5945
X0.6811Y-3.6945
X0.6811Y-3.7945
X1.6811Y-0.9323
X1.6811Y-1.0323
X1.6811Y-1.1323
X1.6811Y-1.2323
X1.6811Y-1.3323
X1.6811Y-1.4323
X1.6811Y-2.1134
X1.6811Y-2.2134
X1.6811Y-2.3134
X1.6811Y-2.4134
X1.6811Y-2.5134
X1.6811Y-2.6134
X1.6811Y-3.2945
X1.6811Y-3.3945
X1.6811Y-3.4945
X1.6811Y-3.5945
X1.6811Y-3.6945
X1.6811Y-3.7945
X1.8622Y-0.9323
X1.8622Y-1.0323
X1.8622Y-1.1323
X1.8622Y-1.2323
X1.8622Y-1.3323
X1.8622Y-1.4323
X1.8622Y-2.1134
X1.8622Y-2.2134
X1.8622Y-2.3134
X1.8622Y-2.4134
X1.8622Y-2.5134
X1.8622Y-2.6134
X1.8622Y-3.2945
X1.8622Y-3.3945
X1.8622Y-3.4945
X1.8622Y-3.5945
X1.8622Y-3.6945
X1.8622Y-3.7945
X2.8622Y-0.9323
X2.8622Y-1.0323
X2.8622Y-1.1323
X2.8622Y-1.2323
X2.8622Y-1.3323
X2.8622Y-1.4323
X2.8622Y-2.1134
X2.8622Y-2.2134
X2.8622Y-2.3134
X2.8622Y-2.4134
X2.8622Y-2.5134
X2.8622Y-2.6134
X2.8622Y-3.2945
X2.8622Y-3.3945
X2.8622Y-3.4945
X2.8622Y-3.5945
X2.8622Y-3.6945
X2.8622Y-3.7945
X3.0433Y-0.9323
X3.0433Y-1.0323
X3.0433Y-1.1323
X3.0433Y-1.2323
X3.0433Y-1.3323
X3.0433Y-1.4323
X3.0433Y-2.1134
X3.0433Y-2.2134
X3.0433Y-2.3134
X3.0433Y-2.4134
X3.0433Y-2.5134
X3.0433Y-2.6134
X3.0433Y-3.2945
X3.0433Y-3.3945
X3.0433Y-3.4945
X3.0433Y-3.5945
X3.0433Y-3.6945
X3.0433Y-3.7945
X4.0433Y-0.9323
X4.0433Y-1.0323
X4.0433Y-1.1323
X4.0433Y-1.2323
X4.0433Y-1.3323
X4.0433Y-1.4323
X4.0433Y-2.1134
X4.0433Y-2.2134
X4.0433Y-2.3134
X4.0433Y-2.4134
X4.0433Y-2.5134
X4.0433Y-2.6134
X4.0433Y-3.2945
X4.0433Y-3.3945
X4.0433Y-3.4945
X4.0433Y-3.5945
X4.0433Y-3.6945
X4.0433Y-3.7945
T2
X1.0531Y-1.4037
X1.0531Y-1.5809
X1.0531Y-2.5848
X1.0531Y-2.762
X1.0531Y-3.7659
X1.0531Y-3.9431
X1.0827Y-0.8337
X1.0827Y-2.0148
X1.0827Y-3.1959
X1.1811Y-0.8337
X1.1811Y-2.0148
X1.1811Y-3.1959
X1.2795Y-0.8337
X1.2795Y-2.0148
X1.2795Y-3.1959
X1.3091Y-1.4037
X1.3091Y-1.5809
X1.3091Y-2.5848
X1.3091Y-2.762
X1.3091Y-3.7659
X1.3091Y-3.9431
X1.5248Y-1.0789
X1.5248Y-1.1774
X1.5248Y-1.2758
X1.5248Y-2.26
X1.5248Y-2.3585
X1.5248Y-2.4569
X1.5248Y-3.4411
X1.5248Y-3.5396
X1.5248Y-3.638
X2.2343Y-1.4037
X2.2343Y-1.5809
X2.2343Y-2.5848
X2.2343Y-2.762
X2.2343Y-3.7659
X2.2343Y-3.9431
X2.2638Y-0.8337
X2.2638Y-2.0148
X2.2638Y-3.1959
X2.3622Y-0.8337
X2.3622Y-2.0148
X2.3622Y-3.1959
X2.4606Y-0.8337
X2.4606Y-2.0148
X2.4606Y-3.1959
X2.4902Y-1.4037
X2.4902Y-1.5809
X2.4902Y-2.5848
X2.4902Y-2.762
X2.4902Y-3.7659
X2.4902Y-3.9431
X2.7059Y-1.0789
X2.7059Y-1.1774
X2.7059Y-1.2758
X2.7059Y-2.26
X2.7059Y-2.3585
X2.7059Y-2.4569
X2.7059Y-3.4411
X2.7059Y-3.5396
X2.7059Y-3.638
X3.4154Y-1.4037
X3.4154Y-1.5809
X3.4154Y-2.5848
X3.4154Y-2.762
X3.4154Y-3.7659
X3.4154Y-3.9431
X3.4449Y-0.8337
X3.4449Y-2.0148
X3.4449Y-3.1959
X3.5433Y-0.8337
X3.5433Y-2.0148
X3.5433Y-3.1959
X3.6417Y-0.8337
X3.6417Y-2.0148
X3.6417Y-3.1959
X3.6713Y-1.4037
X3.6713Y-1.5809
X3.6713Y-2.5848
X3.6713Y-2.762
X3.6713Y-3.7659
X3.6713Y-3.9431
X3.887Y-1.0789
X3.887Y-1.1774
X3.887Y-1.2758
X3.887Y-2.26
X3.887Y-2.3585
X3.887Y-2.4569
X3.887Y-3.4411
X3.887Y-3.5396
X3.887Y-3.638
T3
X0.9321Y-0.9805
X0.9321Y-1.3742
X0.9321Y-2.1616
X0.9321Y-2.5553
X0.9321Y-3.3427
X0.9321Y-3.7364
X1.4301Y-0.9805
X1.4301Y-1.3742
X1.4301Y-2.1616
X1.4301Y-2.5553
X1.4301Y-3.3427
X1.4301Y-3.7364
X2.1132Y-0.9805
X2.1132Y-1.3742
X2.1132Y-2.1616
X2.1132Y-2.5553
X2.1132Y-3.3427
X2.1132Y-3.7364
X2.6112Y-0.9805
X2.6112Y-1.3742
X2.6112Y-2.1616
X2.6112Y-2.5553
X2.6112Y-3.3427
X2.6112Y-3.7364
X3.2943Y-0.9805
X3.2943Y-1.3742
X3.2943Y-2.1616
X3.2943Y-2.5553
X3.2943Y-3.3427
X3.2943Y-3.7364
X3.7923Y-0.9805
X3.7923Y-1.3742
X3.7923Y-2.1616
X3.7923Y-2.5553
X3.7923Y-3.3427
X3.7923Y-3.7364
M30
