%TF.GenerationSoftware,KiCad,Pcbnew,8.0.7*%
%TF.CreationDate,2025-02-11T00:04:32+09:00*%
%TF.ProjectId,joystick_pcb_3x3,6a6f7973-7469-4636-9b5f-7063625f3378,rev?*%
%TF.SameCoordinates,Original*%
%TF.FileFunction,Profile,NP*%
%FSLAX46Y46*%
G04 Gerber Fmt 4.6, Leading zero omitted, Abs format (unit mm)*
G04 Created by KiCad (PCBNEW 8.0.7) date 2025-02-11 00:04:32*
%MOMM*%
%LPD*%
G01*
G04 APERTURE LIST*
%TA.AperFunction,Profile*%
%ADD10C,0.100000*%
%TD*%
G04 APERTURE END LIST*
D10*
X75000000Y-75000000D02*
X105000000Y-75000000D01*
X105000000Y-105000000D01*
X75000000Y-105000000D01*
X75000000Y-75000000D01*
X45000000Y-75000000D02*
X75000000Y-75000000D01*
X75000000Y-105000000D01*
X45000000Y-105000000D01*
X45000000Y-75000000D01*
X15000000Y-75000000D02*
X45000000Y-75000000D01*
X45000000Y-105000000D01*
X15000000Y-105000000D01*
X15000000Y-75000000D01*
X75000000Y-45000000D02*
X105000000Y-45000000D01*
X105000000Y-75000000D01*
X75000000Y-75000000D01*
X75000000Y-45000000D01*
X45000000Y-45000000D02*
X75000000Y-45000000D01*
X75000000Y-75000000D01*
X45000000Y-75000000D01*
X45000000Y-45000000D01*
X15000000Y-45000000D02*
X45000000Y-45000000D01*
X45000000Y-75000000D01*
X15000000Y-75000000D01*
X15000000Y-45000000D01*
X75000000Y-15000000D02*
X105000000Y-15000000D01*
X105000000Y-45000000D01*
X75000000Y-45000000D01*
X75000000Y-15000000D01*
X45000000Y-15000000D02*
X75000000Y-15000000D01*
X75000000Y-45000000D01*
X45000000Y-45000000D01*
X45000000Y-15000000D01*
X15000000Y-15000000D02*
X45000000Y-15000000D01*
X45000000Y-45000000D01*
X15000000Y-45000000D01*
X15000000Y-15000000D01*
M02*
