%TF.GenerationSoftware,KiCad,Pcbnew,8.0.7*%
%TF.CreationDate,2025-02-11T00:04:32+09:00*%
%TF.ProjectId,joystick_pcb_3x3,6a6f7973-7469-4636-9b5f-7063625f3378,rev?*%
%TF.SameCoordinates,Original*%
%TF.FileFunction,Legend,Top*%
%TF.FilePolarity,Positive*%
%FSLAX46Y46*%
G04 Gerber Fmt 4.6, Leading zero omitted, Abs format (unit mm)*
G04 Created by KiCad (PCBNEW 8.0.7) date 2025-02-11 00:04:32*
%MOMM*%
%LPD*%
G01*
G04 APERTURE LIST*
%ADD10C,0.150000*%
%ADD11C,0.120000*%
%ADD12C,0.100000*%
G04 APERTURE END LIST*
D10*
X79287255Y-91328628D02*
X79287255Y-91804819D01*
X78953922Y-90804819D02*
X79287255Y-91328628D01*
X79287255Y-91328628D02*
X79620588Y-90804819D01*
X79001541Y-88264819D02*
X79668207Y-89264819D01*
X79668207Y-88264819D02*
X79001541Y-89264819D01*
X79096779Y-86343866D02*
X79858684Y-86343866D01*
X79477731Y-86724819D02*
X79477731Y-85962914D01*
X80192017Y-85724819D02*
X80525350Y-86724819D01*
X80525350Y-86724819D02*
X80858683Y-85724819D01*
X79620588Y-83232438D02*
X79525350Y-83184819D01*
X79525350Y-83184819D02*
X79382493Y-83184819D01*
X79382493Y-83184819D02*
X79239636Y-83232438D01*
X79239636Y-83232438D02*
X79144398Y-83327676D01*
X79144398Y-83327676D02*
X79096779Y-83422914D01*
X79096779Y-83422914D02*
X79049160Y-83613390D01*
X79049160Y-83613390D02*
X79049160Y-83756247D01*
X79049160Y-83756247D02*
X79096779Y-83946723D01*
X79096779Y-83946723D02*
X79144398Y-84041961D01*
X79144398Y-84041961D02*
X79239636Y-84137200D01*
X79239636Y-84137200D02*
X79382493Y-84184819D01*
X79382493Y-84184819D02*
X79477731Y-84184819D01*
X79477731Y-84184819D02*
X79620588Y-84137200D01*
X79620588Y-84137200D02*
X79668207Y-84089580D01*
X79668207Y-84089580D02*
X79668207Y-83756247D01*
X79668207Y-83756247D02*
X79477731Y-83756247D01*
X80096779Y-84184819D02*
X80096779Y-83184819D01*
X80096779Y-83184819D02*
X80668207Y-84184819D01*
X80668207Y-84184819D02*
X80668207Y-83184819D01*
X81144398Y-84184819D02*
X81144398Y-83184819D01*
X81144398Y-83184819D02*
X81382493Y-83184819D01*
X81382493Y-83184819D02*
X81525350Y-83232438D01*
X81525350Y-83232438D02*
X81620588Y-83327676D01*
X81620588Y-83327676D02*
X81668207Y-83422914D01*
X81668207Y-83422914D02*
X81715826Y-83613390D01*
X81715826Y-83613390D02*
X81715826Y-83756247D01*
X81715826Y-83756247D02*
X81668207Y-83946723D01*
X81668207Y-83946723D02*
X81620588Y-84041961D01*
X81620588Y-84041961D02*
X81525350Y-84137200D01*
X81525350Y-84137200D02*
X81382493Y-84184819D01*
X81382493Y-84184819D02*
X81144398Y-84184819D01*
X79049160Y-96837200D02*
X79192017Y-96884819D01*
X79192017Y-96884819D02*
X79430112Y-96884819D01*
X79430112Y-96884819D02*
X79525350Y-96837200D01*
X79525350Y-96837200D02*
X79572969Y-96789580D01*
X79572969Y-96789580D02*
X79620588Y-96694342D01*
X79620588Y-96694342D02*
X79620588Y-96599104D01*
X79620588Y-96599104D02*
X79572969Y-96503866D01*
X79572969Y-96503866D02*
X79525350Y-96456247D01*
X79525350Y-96456247D02*
X79430112Y-96408628D01*
X79430112Y-96408628D02*
X79239636Y-96361009D01*
X79239636Y-96361009D02*
X79144398Y-96313390D01*
X79144398Y-96313390D02*
X79096779Y-96265771D01*
X79096779Y-96265771D02*
X79049160Y-96170533D01*
X79049160Y-96170533D02*
X79049160Y-96075295D01*
X79049160Y-96075295D02*
X79096779Y-95980057D01*
X79096779Y-95980057D02*
X79144398Y-95932438D01*
X79144398Y-95932438D02*
X79239636Y-95884819D01*
X79239636Y-95884819D02*
X79477731Y-95884819D01*
X79477731Y-95884819D02*
X79620588Y-95932438D01*
X79953922Y-95884819D02*
X80192017Y-96884819D01*
X80192017Y-96884819D02*
X80382493Y-96170533D01*
X80382493Y-96170533D02*
X80572969Y-96884819D01*
X80572969Y-96884819D02*
X80811065Y-95884819D01*
X81144398Y-95980057D02*
X81192017Y-95932438D01*
X81192017Y-95932438D02*
X81287255Y-95884819D01*
X81287255Y-95884819D02*
X81525350Y-95884819D01*
X81525350Y-95884819D02*
X81620588Y-95932438D01*
X81620588Y-95932438D02*
X81668207Y-95980057D01*
X81668207Y-95980057D02*
X81715826Y-96075295D01*
X81715826Y-96075295D02*
X81715826Y-96170533D01*
X81715826Y-96170533D02*
X81668207Y-96313390D01*
X81668207Y-96313390D02*
X81096779Y-96884819D01*
X81096779Y-96884819D02*
X81715826Y-96884819D01*
X79049160Y-94297200D02*
X79192017Y-94344819D01*
X79192017Y-94344819D02*
X79430112Y-94344819D01*
X79430112Y-94344819D02*
X79525350Y-94297200D01*
X79525350Y-94297200D02*
X79572969Y-94249580D01*
X79572969Y-94249580D02*
X79620588Y-94154342D01*
X79620588Y-94154342D02*
X79620588Y-94059104D01*
X79620588Y-94059104D02*
X79572969Y-93963866D01*
X79572969Y-93963866D02*
X79525350Y-93916247D01*
X79525350Y-93916247D02*
X79430112Y-93868628D01*
X79430112Y-93868628D02*
X79239636Y-93821009D01*
X79239636Y-93821009D02*
X79144398Y-93773390D01*
X79144398Y-93773390D02*
X79096779Y-93725771D01*
X79096779Y-93725771D02*
X79049160Y-93630533D01*
X79049160Y-93630533D02*
X79049160Y-93535295D01*
X79049160Y-93535295D02*
X79096779Y-93440057D01*
X79096779Y-93440057D02*
X79144398Y-93392438D01*
X79144398Y-93392438D02*
X79239636Y-93344819D01*
X79239636Y-93344819D02*
X79477731Y-93344819D01*
X79477731Y-93344819D02*
X79620588Y-93392438D01*
X79953922Y-93344819D02*
X80192017Y-94344819D01*
X80192017Y-94344819D02*
X80382493Y-93630533D01*
X80382493Y-93630533D02*
X80572969Y-94344819D01*
X80572969Y-94344819D02*
X80811065Y-93344819D01*
X81715826Y-94344819D02*
X81144398Y-94344819D01*
X81430112Y-94344819D02*
X81430112Y-93344819D01*
X81430112Y-93344819D02*
X81334874Y-93487676D01*
X81334874Y-93487676D02*
X81239636Y-93582914D01*
X81239636Y-93582914D02*
X81144398Y-93630533D01*
X98417160Y-96837200D02*
X98560017Y-96884819D01*
X98560017Y-96884819D02*
X98798112Y-96884819D01*
X98798112Y-96884819D02*
X98893350Y-96837200D01*
X98893350Y-96837200D02*
X98940969Y-96789580D01*
X98940969Y-96789580D02*
X98988588Y-96694342D01*
X98988588Y-96694342D02*
X98988588Y-96599104D01*
X98988588Y-96599104D02*
X98940969Y-96503866D01*
X98940969Y-96503866D02*
X98893350Y-96456247D01*
X98893350Y-96456247D02*
X98798112Y-96408628D01*
X98798112Y-96408628D02*
X98607636Y-96361009D01*
X98607636Y-96361009D02*
X98512398Y-96313390D01*
X98512398Y-96313390D02*
X98464779Y-96265771D01*
X98464779Y-96265771D02*
X98417160Y-96170533D01*
X98417160Y-96170533D02*
X98417160Y-96075295D01*
X98417160Y-96075295D02*
X98464779Y-95980057D01*
X98464779Y-95980057D02*
X98512398Y-95932438D01*
X98512398Y-95932438D02*
X98607636Y-95884819D01*
X98607636Y-95884819D02*
X98845731Y-95884819D01*
X98845731Y-95884819D02*
X98988588Y-95932438D01*
X99321922Y-95884819D02*
X99560017Y-96884819D01*
X99560017Y-96884819D02*
X99750493Y-96170533D01*
X99750493Y-96170533D02*
X99940969Y-96884819D01*
X99940969Y-96884819D02*
X100179065Y-95884819D01*
X100512398Y-95980057D02*
X100560017Y-95932438D01*
X100560017Y-95932438D02*
X100655255Y-95884819D01*
X100655255Y-95884819D02*
X100893350Y-95884819D01*
X100893350Y-95884819D02*
X100988588Y-95932438D01*
X100988588Y-95932438D02*
X101036207Y-95980057D01*
X101036207Y-95980057D02*
X101083826Y-96075295D01*
X101083826Y-96075295D02*
X101083826Y-96170533D01*
X101083826Y-96170533D02*
X101036207Y-96313390D01*
X101036207Y-96313390D02*
X100464779Y-96884819D01*
X100464779Y-96884819D02*
X101083826Y-96884819D01*
X100845731Y-91328628D02*
X100845731Y-91804819D01*
X100512398Y-90804819D02*
X100845731Y-91328628D01*
X100845731Y-91328628D02*
X101179064Y-90804819D01*
X99417160Y-86343866D02*
X100179065Y-86343866D01*
X99798112Y-86724819D02*
X99798112Y-85962914D01*
X100512398Y-85724819D02*
X100845731Y-86724819D01*
X100845731Y-86724819D02*
X101179064Y-85724819D01*
X98417160Y-94297200D02*
X98560017Y-94344819D01*
X98560017Y-94344819D02*
X98798112Y-94344819D01*
X98798112Y-94344819D02*
X98893350Y-94297200D01*
X98893350Y-94297200D02*
X98940969Y-94249580D01*
X98940969Y-94249580D02*
X98988588Y-94154342D01*
X98988588Y-94154342D02*
X98988588Y-94059104D01*
X98988588Y-94059104D02*
X98940969Y-93963866D01*
X98940969Y-93963866D02*
X98893350Y-93916247D01*
X98893350Y-93916247D02*
X98798112Y-93868628D01*
X98798112Y-93868628D02*
X98607636Y-93821009D01*
X98607636Y-93821009D02*
X98512398Y-93773390D01*
X98512398Y-93773390D02*
X98464779Y-93725771D01*
X98464779Y-93725771D02*
X98417160Y-93630533D01*
X98417160Y-93630533D02*
X98417160Y-93535295D01*
X98417160Y-93535295D02*
X98464779Y-93440057D01*
X98464779Y-93440057D02*
X98512398Y-93392438D01*
X98512398Y-93392438D02*
X98607636Y-93344819D01*
X98607636Y-93344819D02*
X98845731Y-93344819D01*
X98845731Y-93344819D02*
X98988588Y-93392438D01*
X99321922Y-93344819D02*
X99560017Y-94344819D01*
X99560017Y-94344819D02*
X99750493Y-93630533D01*
X99750493Y-93630533D02*
X99940969Y-94344819D01*
X99940969Y-94344819D02*
X100179065Y-93344819D01*
X101083826Y-94344819D02*
X100512398Y-94344819D01*
X100798112Y-94344819D02*
X100798112Y-93344819D01*
X100798112Y-93344819D02*
X100702874Y-93487676D01*
X100702874Y-93487676D02*
X100607636Y-93582914D01*
X100607636Y-93582914D02*
X100512398Y-93630533D01*
X100464779Y-88264819D02*
X101131445Y-89264819D01*
X101131445Y-88264819D02*
X100464779Y-89264819D01*
X98988588Y-83232438D02*
X98893350Y-83184819D01*
X98893350Y-83184819D02*
X98750493Y-83184819D01*
X98750493Y-83184819D02*
X98607636Y-83232438D01*
X98607636Y-83232438D02*
X98512398Y-83327676D01*
X98512398Y-83327676D02*
X98464779Y-83422914D01*
X98464779Y-83422914D02*
X98417160Y-83613390D01*
X98417160Y-83613390D02*
X98417160Y-83756247D01*
X98417160Y-83756247D02*
X98464779Y-83946723D01*
X98464779Y-83946723D02*
X98512398Y-84041961D01*
X98512398Y-84041961D02*
X98607636Y-84137200D01*
X98607636Y-84137200D02*
X98750493Y-84184819D01*
X98750493Y-84184819D02*
X98845731Y-84184819D01*
X98845731Y-84184819D02*
X98988588Y-84137200D01*
X98988588Y-84137200D02*
X99036207Y-84089580D01*
X99036207Y-84089580D02*
X99036207Y-83756247D01*
X99036207Y-83756247D02*
X98845731Y-83756247D01*
X99464779Y-84184819D02*
X99464779Y-83184819D01*
X99464779Y-83184819D02*
X100036207Y-84184819D01*
X100036207Y-84184819D02*
X100036207Y-83184819D01*
X100512398Y-84184819D02*
X100512398Y-83184819D01*
X100512398Y-83184819D02*
X100750493Y-83184819D01*
X100750493Y-83184819D02*
X100893350Y-83232438D01*
X100893350Y-83232438D02*
X100988588Y-83327676D01*
X100988588Y-83327676D02*
X101036207Y-83422914D01*
X101036207Y-83422914D02*
X101083826Y-83613390D01*
X101083826Y-83613390D02*
X101083826Y-83756247D01*
X101083826Y-83756247D02*
X101036207Y-83946723D01*
X101036207Y-83946723D02*
X100988588Y-84041961D01*
X100988588Y-84041961D02*
X100893350Y-84137200D01*
X100893350Y-84137200D02*
X100750493Y-84184819D01*
X100750493Y-84184819D02*
X100512398Y-84184819D01*
X49287255Y-91328628D02*
X49287255Y-91804819D01*
X48953922Y-90804819D02*
X49287255Y-91328628D01*
X49287255Y-91328628D02*
X49620588Y-90804819D01*
X49096779Y-86343866D02*
X49858684Y-86343866D01*
X49477731Y-86724819D02*
X49477731Y-85962914D01*
X50192017Y-85724819D02*
X50525350Y-86724819D01*
X50525350Y-86724819D02*
X50858683Y-85724819D01*
X49620588Y-83232438D02*
X49525350Y-83184819D01*
X49525350Y-83184819D02*
X49382493Y-83184819D01*
X49382493Y-83184819D02*
X49239636Y-83232438D01*
X49239636Y-83232438D02*
X49144398Y-83327676D01*
X49144398Y-83327676D02*
X49096779Y-83422914D01*
X49096779Y-83422914D02*
X49049160Y-83613390D01*
X49049160Y-83613390D02*
X49049160Y-83756247D01*
X49049160Y-83756247D02*
X49096779Y-83946723D01*
X49096779Y-83946723D02*
X49144398Y-84041961D01*
X49144398Y-84041961D02*
X49239636Y-84137200D01*
X49239636Y-84137200D02*
X49382493Y-84184819D01*
X49382493Y-84184819D02*
X49477731Y-84184819D01*
X49477731Y-84184819D02*
X49620588Y-84137200D01*
X49620588Y-84137200D02*
X49668207Y-84089580D01*
X49668207Y-84089580D02*
X49668207Y-83756247D01*
X49668207Y-83756247D02*
X49477731Y-83756247D01*
X50096779Y-84184819D02*
X50096779Y-83184819D01*
X50096779Y-83184819D02*
X50668207Y-84184819D01*
X50668207Y-84184819D02*
X50668207Y-83184819D01*
X51144398Y-84184819D02*
X51144398Y-83184819D01*
X51144398Y-83184819D02*
X51382493Y-83184819D01*
X51382493Y-83184819D02*
X51525350Y-83232438D01*
X51525350Y-83232438D02*
X51620588Y-83327676D01*
X51620588Y-83327676D02*
X51668207Y-83422914D01*
X51668207Y-83422914D02*
X51715826Y-83613390D01*
X51715826Y-83613390D02*
X51715826Y-83756247D01*
X51715826Y-83756247D02*
X51668207Y-83946723D01*
X51668207Y-83946723D02*
X51620588Y-84041961D01*
X51620588Y-84041961D02*
X51525350Y-84137200D01*
X51525350Y-84137200D02*
X51382493Y-84184819D01*
X51382493Y-84184819D02*
X51144398Y-84184819D01*
X49049160Y-96837200D02*
X49192017Y-96884819D01*
X49192017Y-96884819D02*
X49430112Y-96884819D01*
X49430112Y-96884819D02*
X49525350Y-96837200D01*
X49525350Y-96837200D02*
X49572969Y-96789580D01*
X49572969Y-96789580D02*
X49620588Y-96694342D01*
X49620588Y-96694342D02*
X49620588Y-96599104D01*
X49620588Y-96599104D02*
X49572969Y-96503866D01*
X49572969Y-96503866D02*
X49525350Y-96456247D01*
X49525350Y-96456247D02*
X49430112Y-96408628D01*
X49430112Y-96408628D02*
X49239636Y-96361009D01*
X49239636Y-96361009D02*
X49144398Y-96313390D01*
X49144398Y-96313390D02*
X49096779Y-96265771D01*
X49096779Y-96265771D02*
X49049160Y-96170533D01*
X49049160Y-96170533D02*
X49049160Y-96075295D01*
X49049160Y-96075295D02*
X49096779Y-95980057D01*
X49096779Y-95980057D02*
X49144398Y-95932438D01*
X49144398Y-95932438D02*
X49239636Y-95884819D01*
X49239636Y-95884819D02*
X49477731Y-95884819D01*
X49477731Y-95884819D02*
X49620588Y-95932438D01*
X49953922Y-95884819D02*
X50192017Y-96884819D01*
X50192017Y-96884819D02*
X50382493Y-96170533D01*
X50382493Y-96170533D02*
X50572969Y-96884819D01*
X50572969Y-96884819D02*
X50811065Y-95884819D01*
X51144398Y-95980057D02*
X51192017Y-95932438D01*
X51192017Y-95932438D02*
X51287255Y-95884819D01*
X51287255Y-95884819D02*
X51525350Y-95884819D01*
X51525350Y-95884819D02*
X51620588Y-95932438D01*
X51620588Y-95932438D02*
X51668207Y-95980057D01*
X51668207Y-95980057D02*
X51715826Y-96075295D01*
X51715826Y-96075295D02*
X51715826Y-96170533D01*
X51715826Y-96170533D02*
X51668207Y-96313390D01*
X51668207Y-96313390D02*
X51096779Y-96884819D01*
X51096779Y-96884819D02*
X51715826Y-96884819D01*
X49049160Y-94297200D02*
X49192017Y-94344819D01*
X49192017Y-94344819D02*
X49430112Y-94344819D01*
X49430112Y-94344819D02*
X49525350Y-94297200D01*
X49525350Y-94297200D02*
X49572969Y-94249580D01*
X49572969Y-94249580D02*
X49620588Y-94154342D01*
X49620588Y-94154342D02*
X49620588Y-94059104D01*
X49620588Y-94059104D02*
X49572969Y-93963866D01*
X49572969Y-93963866D02*
X49525350Y-93916247D01*
X49525350Y-93916247D02*
X49430112Y-93868628D01*
X49430112Y-93868628D02*
X49239636Y-93821009D01*
X49239636Y-93821009D02*
X49144398Y-93773390D01*
X49144398Y-93773390D02*
X49096779Y-93725771D01*
X49096779Y-93725771D02*
X49049160Y-93630533D01*
X49049160Y-93630533D02*
X49049160Y-93535295D01*
X49049160Y-93535295D02*
X49096779Y-93440057D01*
X49096779Y-93440057D02*
X49144398Y-93392438D01*
X49144398Y-93392438D02*
X49239636Y-93344819D01*
X49239636Y-93344819D02*
X49477731Y-93344819D01*
X49477731Y-93344819D02*
X49620588Y-93392438D01*
X49953922Y-93344819D02*
X50192017Y-94344819D01*
X50192017Y-94344819D02*
X50382493Y-93630533D01*
X50382493Y-93630533D02*
X50572969Y-94344819D01*
X50572969Y-94344819D02*
X50811065Y-93344819D01*
X51715826Y-94344819D02*
X51144398Y-94344819D01*
X51430112Y-94344819D02*
X51430112Y-93344819D01*
X51430112Y-93344819D02*
X51334874Y-93487676D01*
X51334874Y-93487676D02*
X51239636Y-93582914D01*
X51239636Y-93582914D02*
X51144398Y-93630533D01*
X49001541Y-88264819D02*
X49668207Y-89264819D01*
X49668207Y-88264819D02*
X49001541Y-89264819D01*
X68417160Y-96837200D02*
X68560017Y-96884819D01*
X68560017Y-96884819D02*
X68798112Y-96884819D01*
X68798112Y-96884819D02*
X68893350Y-96837200D01*
X68893350Y-96837200D02*
X68940969Y-96789580D01*
X68940969Y-96789580D02*
X68988588Y-96694342D01*
X68988588Y-96694342D02*
X68988588Y-96599104D01*
X68988588Y-96599104D02*
X68940969Y-96503866D01*
X68940969Y-96503866D02*
X68893350Y-96456247D01*
X68893350Y-96456247D02*
X68798112Y-96408628D01*
X68798112Y-96408628D02*
X68607636Y-96361009D01*
X68607636Y-96361009D02*
X68512398Y-96313390D01*
X68512398Y-96313390D02*
X68464779Y-96265771D01*
X68464779Y-96265771D02*
X68417160Y-96170533D01*
X68417160Y-96170533D02*
X68417160Y-96075295D01*
X68417160Y-96075295D02*
X68464779Y-95980057D01*
X68464779Y-95980057D02*
X68512398Y-95932438D01*
X68512398Y-95932438D02*
X68607636Y-95884819D01*
X68607636Y-95884819D02*
X68845731Y-95884819D01*
X68845731Y-95884819D02*
X68988588Y-95932438D01*
X69321922Y-95884819D02*
X69560017Y-96884819D01*
X69560017Y-96884819D02*
X69750493Y-96170533D01*
X69750493Y-96170533D02*
X69940969Y-96884819D01*
X69940969Y-96884819D02*
X70179065Y-95884819D01*
X70512398Y-95980057D02*
X70560017Y-95932438D01*
X70560017Y-95932438D02*
X70655255Y-95884819D01*
X70655255Y-95884819D02*
X70893350Y-95884819D01*
X70893350Y-95884819D02*
X70988588Y-95932438D01*
X70988588Y-95932438D02*
X71036207Y-95980057D01*
X71036207Y-95980057D02*
X71083826Y-96075295D01*
X71083826Y-96075295D02*
X71083826Y-96170533D01*
X71083826Y-96170533D02*
X71036207Y-96313390D01*
X71036207Y-96313390D02*
X70464779Y-96884819D01*
X70464779Y-96884819D02*
X71083826Y-96884819D01*
X70845731Y-91328628D02*
X70845731Y-91804819D01*
X70512398Y-90804819D02*
X70845731Y-91328628D01*
X70845731Y-91328628D02*
X71179064Y-90804819D01*
X69417160Y-86343866D02*
X70179065Y-86343866D01*
X69798112Y-86724819D02*
X69798112Y-85962914D01*
X70512398Y-85724819D02*
X70845731Y-86724819D01*
X70845731Y-86724819D02*
X71179064Y-85724819D01*
X68417160Y-94297200D02*
X68560017Y-94344819D01*
X68560017Y-94344819D02*
X68798112Y-94344819D01*
X68798112Y-94344819D02*
X68893350Y-94297200D01*
X68893350Y-94297200D02*
X68940969Y-94249580D01*
X68940969Y-94249580D02*
X68988588Y-94154342D01*
X68988588Y-94154342D02*
X68988588Y-94059104D01*
X68988588Y-94059104D02*
X68940969Y-93963866D01*
X68940969Y-93963866D02*
X68893350Y-93916247D01*
X68893350Y-93916247D02*
X68798112Y-93868628D01*
X68798112Y-93868628D02*
X68607636Y-93821009D01*
X68607636Y-93821009D02*
X68512398Y-93773390D01*
X68512398Y-93773390D02*
X68464779Y-93725771D01*
X68464779Y-93725771D02*
X68417160Y-93630533D01*
X68417160Y-93630533D02*
X68417160Y-93535295D01*
X68417160Y-93535295D02*
X68464779Y-93440057D01*
X68464779Y-93440057D02*
X68512398Y-93392438D01*
X68512398Y-93392438D02*
X68607636Y-93344819D01*
X68607636Y-93344819D02*
X68845731Y-93344819D01*
X68845731Y-93344819D02*
X68988588Y-93392438D01*
X69321922Y-93344819D02*
X69560017Y-94344819D01*
X69560017Y-94344819D02*
X69750493Y-93630533D01*
X69750493Y-93630533D02*
X69940969Y-94344819D01*
X69940969Y-94344819D02*
X70179065Y-93344819D01*
X71083826Y-94344819D02*
X70512398Y-94344819D01*
X70798112Y-94344819D02*
X70798112Y-93344819D01*
X70798112Y-93344819D02*
X70702874Y-93487676D01*
X70702874Y-93487676D02*
X70607636Y-93582914D01*
X70607636Y-93582914D02*
X70512398Y-93630533D01*
X70464779Y-88264819D02*
X71131445Y-89264819D01*
X71131445Y-88264819D02*
X70464779Y-89264819D01*
X68988588Y-83232438D02*
X68893350Y-83184819D01*
X68893350Y-83184819D02*
X68750493Y-83184819D01*
X68750493Y-83184819D02*
X68607636Y-83232438D01*
X68607636Y-83232438D02*
X68512398Y-83327676D01*
X68512398Y-83327676D02*
X68464779Y-83422914D01*
X68464779Y-83422914D02*
X68417160Y-83613390D01*
X68417160Y-83613390D02*
X68417160Y-83756247D01*
X68417160Y-83756247D02*
X68464779Y-83946723D01*
X68464779Y-83946723D02*
X68512398Y-84041961D01*
X68512398Y-84041961D02*
X68607636Y-84137200D01*
X68607636Y-84137200D02*
X68750493Y-84184819D01*
X68750493Y-84184819D02*
X68845731Y-84184819D01*
X68845731Y-84184819D02*
X68988588Y-84137200D01*
X68988588Y-84137200D02*
X69036207Y-84089580D01*
X69036207Y-84089580D02*
X69036207Y-83756247D01*
X69036207Y-83756247D02*
X68845731Y-83756247D01*
X69464779Y-84184819D02*
X69464779Y-83184819D01*
X69464779Y-83184819D02*
X70036207Y-84184819D01*
X70036207Y-84184819D02*
X70036207Y-83184819D01*
X70512398Y-84184819D02*
X70512398Y-83184819D01*
X70512398Y-83184819D02*
X70750493Y-83184819D01*
X70750493Y-83184819D02*
X70893350Y-83232438D01*
X70893350Y-83232438D02*
X70988588Y-83327676D01*
X70988588Y-83327676D02*
X71036207Y-83422914D01*
X71036207Y-83422914D02*
X71083826Y-83613390D01*
X71083826Y-83613390D02*
X71083826Y-83756247D01*
X71083826Y-83756247D02*
X71036207Y-83946723D01*
X71036207Y-83946723D02*
X70988588Y-84041961D01*
X70988588Y-84041961D02*
X70893350Y-84137200D01*
X70893350Y-84137200D02*
X70750493Y-84184819D01*
X70750493Y-84184819D02*
X70512398Y-84184819D01*
X19287255Y-91328628D02*
X19287255Y-91804819D01*
X18953922Y-90804819D02*
X19287255Y-91328628D01*
X19287255Y-91328628D02*
X19620588Y-90804819D01*
X19001541Y-88264819D02*
X19668207Y-89264819D01*
X19668207Y-88264819D02*
X19001541Y-89264819D01*
X19620588Y-83232438D02*
X19525350Y-83184819D01*
X19525350Y-83184819D02*
X19382493Y-83184819D01*
X19382493Y-83184819D02*
X19239636Y-83232438D01*
X19239636Y-83232438D02*
X19144398Y-83327676D01*
X19144398Y-83327676D02*
X19096779Y-83422914D01*
X19096779Y-83422914D02*
X19049160Y-83613390D01*
X19049160Y-83613390D02*
X19049160Y-83756247D01*
X19049160Y-83756247D02*
X19096779Y-83946723D01*
X19096779Y-83946723D02*
X19144398Y-84041961D01*
X19144398Y-84041961D02*
X19239636Y-84137200D01*
X19239636Y-84137200D02*
X19382493Y-84184819D01*
X19382493Y-84184819D02*
X19477731Y-84184819D01*
X19477731Y-84184819D02*
X19620588Y-84137200D01*
X19620588Y-84137200D02*
X19668207Y-84089580D01*
X19668207Y-84089580D02*
X19668207Y-83756247D01*
X19668207Y-83756247D02*
X19477731Y-83756247D01*
X20096779Y-84184819D02*
X20096779Y-83184819D01*
X20096779Y-83184819D02*
X20668207Y-84184819D01*
X20668207Y-84184819D02*
X20668207Y-83184819D01*
X21144398Y-84184819D02*
X21144398Y-83184819D01*
X21144398Y-83184819D02*
X21382493Y-83184819D01*
X21382493Y-83184819D02*
X21525350Y-83232438D01*
X21525350Y-83232438D02*
X21620588Y-83327676D01*
X21620588Y-83327676D02*
X21668207Y-83422914D01*
X21668207Y-83422914D02*
X21715826Y-83613390D01*
X21715826Y-83613390D02*
X21715826Y-83756247D01*
X21715826Y-83756247D02*
X21668207Y-83946723D01*
X21668207Y-83946723D02*
X21620588Y-84041961D01*
X21620588Y-84041961D02*
X21525350Y-84137200D01*
X21525350Y-84137200D02*
X21382493Y-84184819D01*
X21382493Y-84184819D02*
X21144398Y-84184819D01*
X19049160Y-96837200D02*
X19192017Y-96884819D01*
X19192017Y-96884819D02*
X19430112Y-96884819D01*
X19430112Y-96884819D02*
X19525350Y-96837200D01*
X19525350Y-96837200D02*
X19572969Y-96789580D01*
X19572969Y-96789580D02*
X19620588Y-96694342D01*
X19620588Y-96694342D02*
X19620588Y-96599104D01*
X19620588Y-96599104D02*
X19572969Y-96503866D01*
X19572969Y-96503866D02*
X19525350Y-96456247D01*
X19525350Y-96456247D02*
X19430112Y-96408628D01*
X19430112Y-96408628D02*
X19239636Y-96361009D01*
X19239636Y-96361009D02*
X19144398Y-96313390D01*
X19144398Y-96313390D02*
X19096779Y-96265771D01*
X19096779Y-96265771D02*
X19049160Y-96170533D01*
X19049160Y-96170533D02*
X19049160Y-96075295D01*
X19049160Y-96075295D02*
X19096779Y-95980057D01*
X19096779Y-95980057D02*
X19144398Y-95932438D01*
X19144398Y-95932438D02*
X19239636Y-95884819D01*
X19239636Y-95884819D02*
X19477731Y-95884819D01*
X19477731Y-95884819D02*
X19620588Y-95932438D01*
X19953922Y-95884819D02*
X20192017Y-96884819D01*
X20192017Y-96884819D02*
X20382493Y-96170533D01*
X20382493Y-96170533D02*
X20572969Y-96884819D01*
X20572969Y-96884819D02*
X20811065Y-95884819D01*
X21144398Y-95980057D02*
X21192017Y-95932438D01*
X21192017Y-95932438D02*
X21287255Y-95884819D01*
X21287255Y-95884819D02*
X21525350Y-95884819D01*
X21525350Y-95884819D02*
X21620588Y-95932438D01*
X21620588Y-95932438D02*
X21668207Y-95980057D01*
X21668207Y-95980057D02*
X21715826Y-96075295D01*
X21715826Y-96075295D02*
X21715826Y-96170533D01*
X21715826Y-96170533D02*
X21668207Y-96313390D01*
X21668207Y-96313390D02*
X21096779Y-96884819D01*
X21096779Y-96884819D02*
X21715826Y-96884819D01*
X19049160Y-94297200D02*
X19192017Y-94344819D01*
X19192017Y-94344819D02*
X19430112Y-94344819D01*
X19430112Y-94344819D02*
X19525350Y-94297200D01*
X19525350Y-94297200D02*
X19572969Y-94249580D01*
X19572969Y-94249580D02*
X19620588Y-94154342D01*
X19620588Y-94154342D02*
X19620588Y-94059104D01*
X19620588Y-94059104D02*
X19572969Y-93963866D01*
X19572969Y-93963866D02*
X19525350Y-93916247D01*
X19525350Y-93916247D02*
X19430112Y-93868628D01*
X19430112Y-93868628D02*
X19239636Y-93821009D01*
X19239636Y-93821009D02*
X19144398Y-93773390D01*
X19144398Y-93773390D02*
X19096779Y-93725771D01*
X19096779Y-93725771D02*
X19049160Y-93630533D01*
X19049160Y-93630533D02*
X19049160Y-93535295D01*
X19049160Y-93535295D02*
X19096779Y-93440057D01*
X19096779Y-93440057D02*
X19144398Y-93392438D01*
X19144398Y-93392438D02*
X19239636Y-93344819D01*
X19239636Y-93344819D02*
X19477731Y-93344819D01*
X19477731Y-93344819D02*
X19620588Y-93392438D01*
X19953922Y-93344819D02*
X20192017Y-94344819D01*
X20192017Y-94344819D02*
X20382493Y-93630533D01*
X20382493Y-93630533D02*
X20572969Y-94344819D01*
X20572969Y-94344819D02*
X20811065Y-93344819D01*
X21715826Y-94344819D02*
X21144398Y-94344819D01*
X21430112Y-94344819D02*
X21430112Y-93344819D01*
X21430112Y-93344819D02*
X21334874Y-93487676D01*
X21334874Y-93487676D02*
X21239636Y-93582914D01*
X21239636Y-93582914D02*
X21144398Y-93630533D01*
X19096779Y-86343866D02*
X19858684Y-86343866D01*
X19477731Y-86724819D02*
X19477731Y-85962914D01*
X20192017Y-85724819D02*
X20525350Y-86724819D01*
X20525350Y-86724819D02*
X20858683Y-85724819D01*
X38417160Y-96837200D02*
X38560017Y-96884819D01*
X38560017Y-96884819D02*
X38798112Y-96884819D01*
X38798112Y-96884819D02*
X38893350Y-96837200D01*
X38893350Y-96837200D02*
X38940969Y-96789580D01*
X38940969Y-96789580D02*
X38988588Y-96694342D01*
X38988588Y-96694342D02*
X38988588Y-96599104D01*
X38988588Y-96599104D02*
X38940969Y-96503866D01*
X38940969Y-96503866D02*
X38893350Y-96456247D01*
X38893350Y-96456247D02*
X38798112Y-96408628D01*
X38798112Y-96408628D02*
X38607636Y-96361009D01*
X38607636Y-96361009D02*
X38512398Y-96313390D01*
X38512398Y-96313390D02*
X38464779Y-96265771D01*
X38464779Y-96265771D02*
X38417160Y-96170533D01*
X38417160Y-96170533D02*
X38417160Y-96075295D01*
X38417160Y-96075295D02*
X38464779Y-95980057D01*
X38464779Y-95980057D02*
X38512398Y-95932438D01*
X38512398Y-95932438D02*
X38607636Y-95884819D01*
X38607636Y-95884819D02*
X38845731Y-95884819D01*
X38845731Y-95884819D02*
X38988588Y-95932438D01*
X39321922Y-95884819D02*
X39560017Y-96884819D01*
X39560017Y-96884819D02*
X39750493Y-96170533D01*
X39750493Y-96170533D02*
X39940969Y-96884819D01*
X39940969Y-96884819D02*
X40179065Y-95884819D01*
X40512398Y-95980057D02*
X40560017Y-95932438D01*
X40560017Y-95932438D02*
X40655255Y-95884819D01*
X40655255Y-95884819D02*
X40893350Y-95884819D01*
X40893350Y-95884819D02*
X40988588Y-95932438D01*
X40988588Y-95932438D02*
X41036207Y-95980057D01*
X41036207Y-95980057D02*
X41083826Y-96075295D01*
X41083826Y-96075295D02*
X41083826Y-96170533D01*
X41083826Y-96170533D02*
X41036207Y-96313390D01*
X41036207Y-96313390D02*
X40464779Y-96884819D01*
X40464779Y-96884819D02*
X41083826Y-96884819D01*
X40845731Y-91328628D02*
X40845731Y-91804819D01*
X40512398Y-90804819D02*
X40845731Y-91328628D01*
X40845731Y-91328628D02*
X41179064Y-90804819D01*
X39417160Y-86343866D02*
X40179065Y-86343866D01*
X39798112Y-86724819D02*
X39798112Y-85962914D01*
X40512398Y-85724819D02*
X40845731Y-86724819D01*
X40845731Y-86724819D02*
X41179064Y-85724819D01*
X38417160Y-94297200D02*
X38560017Y-94344819D01*
X38560017Y-94344819D02*
X38798112Y-94344819D01*
X38798112Y-94344819D02*
X38893350Y-94297200D01*
X38893350Y-94297200D02*
X38940969Y-94249580D01*
X38940969Y-94249580D02*
X38988588Y-94154342D01*
X38988588Y-94154342D02*
X38988588Y-94059104D01*
X38988588Y-94059104D02*
X38940969Y-93963866D01*
X38940969Y-93963866D02*
X38893350Y-93916247D01*
X38893350Y-93916247D02*
X38798112Y-93868628D01*
X38798112Y-93868628D02*
X38607636Y-93821009D01*
X38607636Y-93821009D02*
X38512398Y-93773390D01*
X38512398Y-93773390D02*
X38464779Y-93725771D01*
X38464779Y-93725771D02*
X38417160Y-93630533D01*
X38417160Y-93630533D02*
X38417160Y-93535295D01*
X38417160Y-93535295D02*
X38464779Y-93440057D01*
X38464779Y-93440057D02*
X38512398Y-93392438D01*
X38512398Y-93392438D02*
X38607636Y-93344819D01*
X38607636Y-93344819D02*
X38845731Y-93344819D01*
X38845731Y-93344819D02*
X38988588Y-93392438D01*
X39321922Y-93344819D02*
X39560017Y-94344819D01*
X39560017Y-94344819D02*
X39750493Y-93630533D01*
X39750493Y-93630533D02*
X39940969Y-94344819D01*
X39940969Y-94344819D02*
X40179065Y-93344819D01*
X41083826Y-94344819D02*
X40512398Y-94344819D01*
X40798112Y-94344819D02*
X40798112Y-93344819D01*
X40798112Y-93344819D02*
X40702874Y-93487676D01*
X40702874Y-93487676D02*
X40607636Y-93582914D01*
X40607636Y-93582914D02*
X40512398Y-93630533D01*
X40464779Y-88264819D02*
X41131445Y-89264819D01*
X41131445Y-88264819D02*
X40464779Y-89264819D01*
X38988588Y-83232438D02*
X38893350Y-83184819D01*
X38893350Y-83184819D02*
X38750493Y-83184819D01*
X38750493Y-83184819D02*
X38607636Y-83232438D01*
X38607636Y-83232438D02*
X38512398Y-83327676D01*
X38512398Y-83327676D02*
X38464779Y-83422914D01*
X38464779Y-83422914D02*
X38417160Y-83613390D01*
X38417160Y-83613390D02*
X38417160Y-83756247D01*
X38417160Y-83756247D02*
X38464779Y-83946723D01*
X38464779Y-83946723D02*
X38512398Y-84041961D01*
X38512398Y-84041961D02*
X38607636Y-84137200D01*
X38607636Y-84137200D02*
X38750493Y-84184819D01*
X38750493Y-84184819D02*
X38845731Y-84184819D01*
X38845731Y-84184819D02*
X38988588Y-84137200D01*
X38988588Y-84137200D02*
X39036207Y-84089580D01*
X39036207Y-84089580D02*
X39036207Y-83756247D01*
X39036207Y-83756247D02*
X38845731Y-83756247D01*
X39464779Y-84184819D02*
X39464779Y-83184819D01*
X39464779Y-83184819D02*
X40036207Y-84184819D01*
X40036207Y-84184819D02*
X40036207Y-83184819D01*
X40512398Y-84184819D02*
X40512398Y-83184819D01*
X40512398Y-83184819D02*
X40750493Y-83184819D01*
X40750493Y-83184819D02*
X40893350Y-83232438D01*
X40893350Y-83232438D02*
X40988588Y-83327676D01*
X40988588Y-83327676D02*
X41036207Y-83422914D01*
X41036207Y-83422914D02*
X41083826Y-83613390D01*
X41083826Y-83613390D02*
X41083826Y-83756247D01*
X41083826Y-83756247D02*
X41036207Y-83946723D01*
X41036207Y-83946723D02*
X40988588Y-84041961D01*
X40988588Y-84041961D02*
X40893350Y-84137200D01*
X40893350Y-84137200D02*
X40750493Y-84184819D01*
X40750493Y-84184819D02*
X40512398Y-84184819D01*
X79096779Y-56343866D02*
X79858684Y-56343866D01*
X79477731Y-56724819D02*
X79477731Y-55962914D01*
X80192017Y-55724819D02*
X80525350Y-56724819D01*
X80525350Y-56724819D02*
X80858683Y-55724819D01*
X79001541Y-58264819D02*
X79668207Y-59264819D01*
X79668207Y-58264819D02*
X79001541Y-59264819D01*
X79620588Y-53232438D02*
X79525350Y-53184819D01*
X79525350Y-53184819D02*
X79382493Y-53184819D01*
X79382493Y-53184819D02*
X79239636Y-53232438D01*
X79239636Y-53232438D02*
X79144398Y-53327676D01*
X79144398Y-53327676D02*
X79096779Y-53422914D01*
X79096779Y-53422914D02*
X79049160Y-53613390D01*
X79049160Y-53613390D02*
X79049160Y-53756247D01*
X79049160Y-53756247D02*
X79096779Y-53946723D01*
X79096779Y-53946723D02*
X79144398Y-54041961D01*
X79144398Y-54041961D02*
X79239636Y-54137200D01*
X79239636Y-54137200D02*
X79382493Y-54184819D01*
X79382493Y-54184819D02*
X79477731Y-54184819D01*
X79477731Y-54184819D02*
X79620588Y-54137200D01*
X79620588Y-54137200D02*
X79668207Y-54089580D01*
X79668207Y-54089580D02*
X79668207Y-53756247D01*
X79668207Y-53756247D02*
X79477731Y-53756247D01*
X80096779Y-54184819D02*
X80096779Y-53184819D01*
X80096779Y-53184819D02*
X80668207Y-54184819D01*
X80668207Y-54184819D02*
X80668207Y-53184819D01*
X81144398Y-54184819D02*
X81144398Y-53184819D01*
X81144398Y-53184819D02*
X81382493Y-53184819D01*
X81382493Y-53184819D02*
X81525350Y-53232438D01*
X81525350Y-53232438D02*
X81620588Y-53327676D01*
X81620588Y-53327676D02*
X81668207Y-53422914D01*
X81668207Y-53422914D02*
X81715826Y-53613390D01*
X81715826Y-53613390D02*
X81715826Y-53756247D01*
X81715826Y-53756247D02*
X81668207Y-53946723D01*
X81668207Y-53946723D02*
X81620588Y-54041961D01*
X81620588Y-54041961D02*
X81525350Y-54137200D01*
X81525350Y-54137200D02*
X81382493Y-54184819D01*
X81382493Y-54184819D02*
X81144398Y-54184819D01*
X79287255Y-61328628D02*
X79287255Y-61804819D01*
X78953922Y-60804819D02*
X79287255Y-61328628D01*
X79287255Y-61328628D02*
X79620588Y-60804819D01*
X79049160Y-64297200D02*
X79192017Y-64344819D01*
X79192017Y-64344819D02*
X79430112Y-64344819D01*
X79430112Y-64344819D02*
X79525350Y-64297200D01*
X79525350Y-64297200D02*
X79572969Y-64249580D01*
X79572969Y-64249580D02*
X79620588Y-64154342D01*
X79620588Y-64154342D02*
X79620588Y-64059104D01*
X79620588Y-64059104D02*
X79572969Y-63963866D01*
X79572969Y-63963866D02*
X79525350Y-63916247D01*
X79525350Y-63916247D02*
X79430112Y-63868628D01*
X79430112Y-63868628D02*
X79239636Y-63821009D01*
X79239636Y-63821009D02*
X79144398Y-63773390D01*
X79144398Y-63773390D02*
X79096779Y-63725771D01*
X79096779Y-63725771D02*
X79049160Y-63630533D01*
X79049160Y-63630533D02*
X79049160Y-63535295D01*
X79049160Y-63535295D02*
X79096779Y-63440057D01*
X79096779Y-63440057D02*
X79144398Y-63392438D01*
X79144398Y-63392438D02*
X79239636Y-63344819D01*
X79239636Y-63344819D02*
X79477731Y-63344819D01*
X79477731Y-63344819D02*
X79620588Y-63392438D01*
X79953922Y-63344819D02*
X80192017Y-64344819D01*
X80192017Y-64344819D02*
X80382493Y-63630533D01*
X80382493Y-63630533D02*
X80572969Y-64344819D01*
X80572969Y-64344819D02*
X80811065Y-63344819D01*
X81715826Y-64344819D02*
X81144398Y-64344819D01*
X81430112Y-64344819D02*
X81430112Y-63344819D01*
X81430112Y-63344819D02*
X81334874Y-63487676D01*
X81334874Y-63487676D02*
X81239636Y-63582914D01*
X81239636Y-63582914D02*
X81144398Y-63630533D01*
X79049160Y-66837200D02*
X79192017Y-66884819D01*
X79192017Y-66884819D02*
X79430112Y-66884819D01*
X79430112Y-66884819D02*
X79525350Y-66837200D01*
X79525350Y-66837200D02*
X79572969Y-66789580D01*
X79572969Y-66789580D02*
X79620588Y-66694342D01*
X79620588Y-66694342D02*
X79620588Y-66599104D01*
X79620588Y-66599104D02*
X79572969Y-66503866D01*
X79572969Y-66503866D02*
X79525350Y-66456247D01*
X79525350Y-66456247D02*
X79430112Y-66408628D01*
X79430112Y-66408628D02*
X79239636Y-66361009D01*
X79239636Y-66361009D02*
X79144398Y-66313390D01*
X79144398Y-66313390D02*
X79096779Y-66265771D01*
X79096779Y-66265771D02*
X79049160Y-66170533D01*
X79049160Y-66170533D02*
X79049160Y-66075295D01*
X79049160Y-66075295D02*
X79096779Y-65980057D01*
X79096779Y-65980057D02*
X79144398Y-65932438D01*
X79144398Y-65932438D02*
X79239636Y-65884819D01*
X79239636Y-65884819D02*
X79477731Y-65884819D01*
X79477731Y-65884819D02*
X79620588Y-65932438D01*
X79953922Y-65884819D02*
X80192017Y-66884819D01*
X80192017Y-66884819D02*
X80382493Y-66170533D01*
X80382493Y-66170533D02*
X80572969Y-66884819D01*
X80572969Y-66884819D02*
X80811065Y-65884819D01*
X81144398Y-65980057D02*
X81192017Y-65932438D01*
X81192017Y-65932438D02*
X81287255Y-65884819D01*
X81287255Y-65884819D02*
X81525350Y-65884819D01*
X81525350Y-65884819D02*
X81620588Y-65932438D01*
X81620588Y-65932438D02*
X81668207Y-65980057D01*
X81668207Y-65980057D02*
X81715826Y-66075295D01*
X81715826Y-66075295D02*
X81715826Y-66170533D01*
X81715826Y-66170533D02*
X81668207Y-66313390D01*
X81668207Y-66313390D02*
X81096779Y-66884819D01*
X81096779Y-66884819D02*
X81715826Y-66884819D01*
X98417160Y-66837200D02*
X98560017Y-66884819D01*
X98560017Y-66884819D02*
X98798112Y-66884819D01*
X98798112Y-66884819D02*
X98893350Y-66837200D01*
X98893350Y-66837200D02*
X98940969Y-66789580D01*
X98940969Y-66789580D02*
X98988588Y-66694342D01*
X98988588Y-66694342D02*
X98988588Y-66599104D01*
X98988588Y-66599104D02*
X98940969Y-66503866D01*
X98940969Y-66503866D02*
X98893350Y-66456247D01*
X98893350Y-66456247D02*
X98798112Y-66408628D01*
X98798112Y-66408628D02*
X98607636Y-66361009D01*
X98607636Y-66361009D02*
X98512398Y-66313390D01*
X98512398Y-66313390D02*
X98464779Y-66265771D01*
X98464779Y-66265771D02*
X98417160Y-66170533D01*
X98417160Y-66170533D02*
X98417160Y-66075295D01*
X98417160Y-66075295D02*
X98464779Y-65980057D01*
X98464779Y-65980057D02*
X98512398Y-65932438D01*
X98512398Y-65932438D02*
X98607636Y-65884819D01*
X98607636Y-65884819D02*
X98845731Y-65884819D01*
X98845731Y-65884819D02*
X98988588Y-65932438D01*
X99321922Y-65884819D02*
X99560017Y-66884819D01*
X99560017Y-66884819D02*
X99750493Y-66170533D01*
X99750493Y-66170533D02*
X99940969Y-66884819D01*
X99940969Y-66884819D02*
X100179065Y-65884819D01*
X100512398Y-65980057D02*
X100560017Y-65932438D01*
X100560017Y-65932438D02*
X100655255Y-65884819D01*
X100655255Y-65884819D02*
X100893350Y-65884819D01*
X100893350Y-65884819D02*
X100988588Y-65932438D01*
X100988588Y-65932438D02*
X101036207Y-65980057D01*
X101036207Y-65980057D02*
X101083826Y-66075295D01*
X101083826Y-66075295D02*
X101083826Y-66170533D01*
X101083826Y-66170533D02*
X101036207Y-66313390D01*
X101036207Y-66313390D02*
X100464779Y-66884819D01*
X100464779Y-66884819D02*
X101083826Y-66884819D01*
X100845731Y-61328628D02*
X100845731Y-61804819D01*
X100512398Y-60804819D02*
X100845731Y-61328628D01*
X100845731Y-61328628D02*
X101179064Y-60804819D01*
X99417160Y-56343866D02*
X100179065Y-56343866D01*
X99798112Y-56724819D02*
X99798112Y-55962914D01*
X100512398Y-55724819D02*
X100845731Y-56724819D01*
X100845731Y-56724819D02*
X101179064Y-55724819D01*
X98417160Y-64297200D02*
X98560017Y-64344819D01*
X98560017Y-64344819D02*
X98798112Y-64344819D01*
X98798112Y-64344819D02*
X98893350Y-64297200D01*
X98893350Y-64297200D02*
X98940969Y-64249580D01*
X98940969Y-64249580D02*
X98988588Y-64154342D01*
X98988588Y-64154342D02*
X98988588Y-64059104D01*
X98988588Y-64059104D02*
X98940969Y-63963866D01*
X98940969Y-63963866D02*
X98893350Y-63916247D01*
X98893350Y-63916247D02*
X98798112Y-63868628D01*
X98798112Y-63868628D02*
X98607636Y-63821009D01*
X98607636Y-63821009D02*
X98512398Y-63773390D01*
X98512398Y-63773390D02*
X98464779Y-63725771D01*
X98464779Y-63725771D02*
X98417160Y-63630533D01*
X98417160Y-63630533D02*
X98417160Y-63535295D01*
X98417160Y-63535295D02*
X98464779Y-63440057D01*
X98464779Y-63440057D02*
X98512398Y-63392438D01*
X98512398Y-63392438D02*
X98607636Y-63344819D01*
X98607636Y-63344819D02*
X98845731Y-63344819D01*
X98845731Y-63344819D02*
X98988588Y-63392438D01*
X99321922Y-63344819D02*
X99560017Y-64344819D01*
X99560017Y-64344819D02*
X99750493Y-63630533D01*
X99750493Y-63630533D02*
X99940969Y-64344819D01*
X99940969Y-64344819D02*
X100179065Y-63344819D01*
X101083826Y-64344819D02*
X100512398Y-64344819D01*
X100798112Y-64344819D02*
X100798112Y-63344819D01*
X100798112Y-63344819D02*
X100702874Y-63487676D01*
X100702874Y-63487676D02*
X100607636Y-63582914D01*
X100607636Y-63582914D02*
X100512398Y-63630533D01*
X100464779Y-58264819D02*
X101131445Y-59264819D01*
X101131445Y-58264819D02*
X100464779Y-59264819D01*
X98988588Y-53232438D02*
X98893350Y-53184819D01*
X98893350Y-53184819D02*
X98750493Y-53184819D01*
X98750493Y-53184819D02*
X98607636Y-53232438D01*
X98607636Y-53232438D02*
X98512398Y-53327676D01*
X98512398Y-53327676D02*
X98464779Y-53422914D01*
X98464779Y-53422914D02*
X98417160Y-53613390D01*
X98417160Y-53613390D02*
X98417160Y-53756247D01*
X98417160Y-53756247D02*
X98464779Y-53946723D01*
X98464779Y-53946723D02*
X98512398Y-54041961D01*
X98512398Y-54041961D02*
X98607636Y-54137200D01*
X98607636Y-54137200D02*
X98750493Y-54184819D01*
X98750493Y-54184819D02*
X98845731Y-54184819D01*
X98845731Y-54184819D02*
X98988588Y-54137200D01*
X98988588Y-54137200D02*
X99036207Y-54089580D01*
X99036207Y-54089580D02*
X99036207Y-53756247D01*
X99036207Y-53756247D02*
X98845731Y-53756247D01*
X99464779Y-54184819D02*
X99464779Y-53184819D01*
X99464779Y-53184819D02*
X100036207Y-54184819D01*
X100036207Y-54184819D02*
X100036207Y-53184819D01*
X100512398Y-54184819D02*
X100512398Y-53184819D01*
X100512398Y-53184819D02*
X100750493Y-53184819D01*
X100750493Y-53184819D02*
X100893350Y-53232438D01*
X100893350Y-53232438D02*
X100988588Y-53327676D01*
X100988588Y-53327676D02*
X101036207Y-53422914D01*
X101036207Y-53422914D02*
X101083826Y-53613390D01*
X101083826Y-53613390D02*
X101083826Y-53756247D01*
X101083826Y-53756247D02*
X101036207Y-53946723D01*
X101036207Y-53946723D02*
X100988588Y-54041961D01*
X100988588Y-54041961D02*
X100893350Y-54137200D01*
X100893350Y-54137200D02*
X100750493Y-54184819D01*
X100750493Y-54184819D02*
X100512398Y-54184819D01*
X49001541Y-58264819D02*
X49668207Y-59264819D01*
X49668207Y-58264819D02*
X49001541Y-59264819D01*
X49287255Y-61328628D02*
X49287255Y-61804819D01*
X48953922Y-60804819D02*
X49287255Y-61328628D01*
X49287255Y-61328628D02*
X49620588Y-60804819D01*
X49049160Y-64297200D02*
X49192017Y-64344819D01*
X49192017Y-64344819D02*
X49430112Y-64344819D01*
X49430112Y-64344819D02*
X49525350Y-64297200D01*
X49525350Y-64297200D02*
X49572969Y-64249580D01*
X49572969Y-64249580D02*
X49620588Y-64154342D01*
X49620588Y-64154342D02*
X49620588Y-64059104D01*
X49620588Y-64059104D02*
X49572969Y-63963866D01*
X49572969Y-63963866D02*
X49525350Y-63916247D01*
X49525350Y-63916247D02*
X49430112Y-63868628D01*
X49430112Y-63868628D02*
X49239636Y-63821009D01*
X49239636Y-63821009D02*
X49144398Y-63773390D01*
X49144398Y-63773390D02*
X49096779Y-63725771D01*
X49096779Y-63725771D02*
X49049160Y-63630533D01*
X49049160Y-63630533D02*
X49049160Y-63535295D01*
X49049160Y-63535295D02*
X49096779Y-63440057D01*
X49096779Y-63440057D02*
X49144398Y-63392438D01*
X49144398Y-63392438D02*
X49239636Y-63344819D01*
X49239636Y-63344819D02*
X49477731Y-63344819D01*
X49477731Y-63344819D02*
X49620588Y-63392438D01*
X49953922Y-63344819D02*
X50192017Y-64344819D01*
X50192017Y-64344819D02*
X50382493Y-63630533D01*
X50382493Y-63630533D02*
X50572969Y-64344819D01*
X50572969Y-64344819D02*
X50811065Y-63344819D01*
X51715826Y-64344819D02*
X51144398Y-64344819D01*
X51430112Y-64344819D02*
X51430112Y-63344819D01*
X51430112Y-63344819D02*
X51334874Y-63487676D01*
X51334874Y-63487676D02*
X51239636Y-63582914D01*
X51239636Y-63582914D02*
X51144398Y-63630533D01*
X49096779Y-56343866D02*
X49858684Y-56343866D01*
X49477731Y-56724819D02*
X49477731Y-55962914D01*
X50192017Y-55724819D02*
X50525350Y-56724819D01*
X50525350Y-56724819D02*
X50858683Y-55724819D01*
X49049160Y-66837200D02*
X49192017Y-66884819D01*
X49192017Y-66884819D02*
X49430112Y-66884819D01*
X49430112Y-66884819D02*
X49525350Y-66837200D01*
X49525350Y-66837200D02*
X49572969Y-66789580D01*
X49572969Y-66789580D02*
X49620588Y-66694342D01*
X49620588Y-66694342D02*
X49620588Y-66599104D01*
X49620588Y-66599104D02*
X49572969Y-66503866D01*
X49572969Y-66503866D02*
X49525350Y-66456247D01*
X49525350Y-66456247D02*
X49430112Y-66408628D01*
X49430112Y-66408628D02*
X49239636Y-66361009D01*
X49239636Y-66361009D02*
X49144398Y-66313390D01*
X49144398Y-66313390D02*
X49096779Y-66265771D01*
X49096779Y-66265771D02*
X49049160Y-66170533D01*
X49049160Y-66170533D02*
X49049160Y-66075295D01*
X49049160Y-66075295D02*
X49096779Y-65980057D01*
X49096779Y-65980057D02*
X49144398Y-65932438D01*
X49144398Y-65932438D02*
X49239636Y-65884819D01*
X49239636Y-65884819D02*
X49477731Y-65884819D01*
X49477731Y-65884819D02*
X49620588Y-65932438D01*
X49953922Y-65884819D02*
X50192017Y-66884819D01*
X50192017Y-66884819D02*
X50382493Y-66170533D01*
X50382493Y-66170533D02*
X50572969Y-66884819D01*
X50572969Y-66884819D02*
X50811065Y-65884819D01*
X51144398Y-65980057D02*
X51192017Y-65932438D01*
X51192017Y-65932438D02*
X51287255Y-65884819D01*
X51287255Y-65884819D02*
X51525350Y-65884819D01*
X51525350Y-65884819D02*
X51620588Y-65932438D01*
X51620588Y-65932438D02*
X51668207Y-65980057D01*
X51668207Y-65980057D02*
X51715826Y-66075295D01*
X51715826Y-66075295D02*
X51715826Y-66170533D01*
X51715826Y-66170533D02*
X51668207Y-66313390D01*
X51668207Y-66313390D02*
X51096779Y-66884819D01*
X51096779Y-66884819D02*
X51715826Y-66884819D01*
X49620588Y-53232438D02*
X49525350Y-53184819D01*
X49525350Y-53184819D02*
X49382493Y-53184819D01*
X49382493Y-53184819D02*
X49239636Y-53232438D01*
X49239636Y-53232438D02*
X49144398Y-53327676D01*
X49144398Y-53327676D02*
X49096779Y-53422914D01*
X49096779Y-53422914D02*
X49049160Y-53613390D01*
X49049160Y-53613390D02*
X49049160Y-53756247D01*
X49049160Y-53756247D02*
X49096779Y-53946723D01*
X49096779Y-53946723D02*
X49144398Y-54041961D01*
X49144398Y-54041961D02*
X49239636Y-54137200D01*
X49239636Y-54137200D02*
X49382493Y-54184819D01*
X49382493Y-54184819D02*
X49477731Y-54184819D01*
X49477731Y-54184819D02*
X49620588Y-54137200D01*
X49620588Y-54137200D02*
X49668207Y-54089580D01*
X49668207Y-54089580D02*
X49668207Y-53756247D01*
X49668207Y-53756247D02*
X49477731Y-53756247D01*
X50096779Y-54184819D02*
X50096779Y-53184819D01*
X50096779Y-53184819D02*
X50668207Y-54184819D01*
X50668207Y-54184819D02*
X50668207Y-53184819D01*
X51144398Y-54184819D02*
X51144398Y-53184819D01*
X51144398Y-53184819D02*
X51382493Y-53184819D01*
X51382493Y-53184819D02*
X51525350Y-53232438D01*
X51525350Y-53232438D02*
X51620588Y-53327676D01*
X51620588Y-53327676D02*
X51668207Y-53422914D01*
X51668207Y-53422914D02*
X51715826Y-53613390D01*
X51715826Y-53613390D02*
X51715826Y-53756247D01*
X51715826Y-53756247D02*
X51668207Y-53946723D01*
X51668207Y-53946723D02*
X51620588Y-54041961D01*
X51620588Y-54041961D02*
X51525350Y-54137200D01*
X51525350Y-54137200D02*
X51382493Y-54184819D01*
X51382493Y-54184819D02*
X51144398Y-54184819D01*
X68417160Y-66837200D02*
X68560017Y-66884819D01*
X68560017Y-66884819D02*
X68798112Y-66884819D01*
X68798112Y-66884819D02*
X68893350Y-66837200D01*
X68893350Y-66837200D02*
X68940969Y-66789580D01*
X68940969Y-66789580D02*
X68988588Y-66694342D01*
X68988588Y-66694342D02*
X68988588Y-66599104D01*
X68988588Y-66599104D02*
X68940969Y-66503866D01*
X68940969Y-66503866D02*
X68893350Y-66456247D01*
X68893350Y-66456247D02*
X68798112Y-66408628D01*
X68798112Y-66408628D02*
X68607636Y-66361009D01*
X68607636Y-66361009D02*
X68512398Y-66313390D01*
X68512398Y-66313390D02*
X68464779Y-66265771D01*
X68464779Y-66265771D02*
X68417160Y-66170533D01*
X68417160Y-66170533D02*
X68417160Y-66075295D01*
X68417160Y-66075295D02*
X68464779Y-65980057D01*
X68464779Y-65980057D02*
X68512398Y-65932438D01*
X68512398Y-65932438D02*
X68607636Y-65884819D01*
X68607636Y-65884819D02*
X68845731Y-65884819D01*
X68845731Y-65884819D02*
X68988588Y-65932438D01*
X69321922Y-65884819D02*
X69560017Y-66884819D01*
X69560017Y-66884819D02*
X69750493Y-66170533D01*
X69750493Y-66170533D02*
X69940969Y-66884819D01*
X69940969Y-66884819D02*
X70179065Y-65884819D01*
X70512398Y-65980057D02*
X70560017Y-65932438D01*
X70560017Y-65932438D02*
X70655255Y-65884819D01*
X70655255Y-65884819D02*
X70893350Y-65884819D01*
X70893350Y-65884819D02*
X70988588Y-65932438D01*
X70988588Y-65932438D02*
X71036207Y-65980057D01*
X71036207Y-65980057D02*
X71083826Y-66075295D01*
X71083826Y-66075295D02*
X71083826Y-66170533D01*
X71083826Y-66170533D02*
X71036207Y-66313390D01*
X71036207Y-66313390D02*
X70464779Y-66884819D01*
X70464779Y-66884819D02*
X71083826Y-66884819D01*
X70845731Y-61328628D02*
X70845731Y-61804819D01*
X70512398Y-60804819D02*
X70845731Y-61328628D01*
X70845731Y-61328628D02*
X71179064Y-60804819D01*
X69417160Y-56343866D02*
X70179065Y-56343866D01*
X69798112Y-56724819D02*
X69798112Y-55962914D01*
X70512398Y-55724819D02*
X70845731Y-56724819D01*
X70845731Y-56724819D02*
X71179064Y-55724819D01*
X68417160Y-64297200D02*
X68560017Y-64344819D01*
X68560017Y-64344819D02*
X68798112Y-64344819D01*
X68798112Y-64344819D02*
X68893350Y-64297200D01*
X68893350Y-64297200D02*
X68940969Y-64249580D01*
X68940969Y-64249580D02*
X68988588Y-64154342D01*
X68988588Y-64154342D02*
X68988588Y-64059104D01*
X68988588Y-64059104D02*
X68940969Y-63963866D01*
X68940969Y-63963866D02*
X68893350Y-63916247D01*
X68893350Y-63916247D02*
X68798112Y-63868628D01*
X68798112Y-63868628D02*
X68607636Y-63821009D01*
X68607636Y-63821009D02*
X68512398Y-63773390D01*
X68512398Y-63773390D02*
X68464779Y-63725771D01*
X68464779Y-63725771D02*
X68417160Y-63630533D01*
X68417160Y-63630533D02*
X68417160Y-63535295D01*
X68417160Y-63535295D02*
X68464779Y-63440057D01*
X68464779Y-63440057D02*
X68512398Y-63392438D01*
X68512398Y-63392438D02*
X68607636Y-63344819D01*
X68607636Y-63344819D02*
X68845731Y-63344819D01*
X68845731Y-63344819D02*
X68988588Y-63392438D01*
X69321922Y-63344819D02*
X69560017Y-64344819D01*
X69560017Y-64344819D02*
X69750493Y-63630533D01*
X69750493Y-63630533D02*
X69940969Y-64344819D01*
X69940969Y-64344819D02*
X70179065Y-63344819D01*
X71083826Y-64344819D02*
X70512398Y-64344819D01*
X70798112Y-64344819D02*
X70798112Y-63344819D01*
X70798112Y-63344819D02*
X70702874Y-63487676D01*
X70702874Y-63487676D02*
X70607636Y-63582914D01*
X70607636Y-63582914D02*
X70512398Y-63630533D01*
X70464779Y-58264819D02*
X71131445Y-59264819D01*
X71131445Y-58264819D02*
X70464779Y-59264819D01*
X68988588Y-53232438D02*
X68893350Y-53184819D01*
X68893350Y-53184819D02*
X68750493Y-53184819D01*
X68750493Y-53184819D02*
X68607636Y-53232438D01*
X68607636Y-53232438D02*
X68512398Y-53327676D01*
X68512398Y-53327676D02*
X68464779Y-53422914D01*
X68464779Y-53422914D02*
X68417160Y-53613390D01*
X68417160Y-53613390D02*
X68417160Y-53756247D01*
X68417160Y-53756247D02*
X68464779Y-53946723D01*
X68464779Y-53946723D02*
X68512398Y-54041961D01*
X68512398Y-54041961D02*
X68607636Y-54137200D01*
X68607636Y-54137200D02*
X68750493Y-54184819D01*
X68750493Y-54184819D02*
X68845731Y-54184819D01*
X68845731Y-54184819D02*
X68988588Y-54137200D01*
X68988588Y-54137200D02*
X69036207Y-54089580D01*
X69036207Y-54089580D02*
X69036207Y-53756247D01*
X69036207Y-53756247D02*
X68845731Y-53756247D01*
X69464779Y-54184819D02*
X69464779Y-53184819D01*
X69464779Y-53184819D02*
X70036207Y-54184819D01*
X70036207Y-54184819D02*
X70036207Y-53184819D01*
X70512398Y-54184819D02*
X70512398Y-53184819D01*
X70512398Y-53184819D02*
X70750493Y-53184819D01*
X70750493Y-53184819D02*
X70893350Y-53232438D01*
X70893350Y-53232438D02*
X70988588Y-53327676D01*
X70988588Y-53327676D02*
X71036207Y-53422914D01*
X71036207Y-53422914D02*
X71083826Y-53613390D01*
X71083826Y-53613390D02*
X71083826Y-53756247D01*
X71083826Y-53756247D02*
X71036207Y-53946723D01*
X71036207Y-53946723D02*
X70988588Y-54041961D01*
X70988588Y-54041961D02*
X70893350Y-54137200D01*
X70893350Y-54137200D02*
X70750493Y-54184819D01*
X70750493Y-54184819D02*
X70512398Y-54184819D01*
X19096779Y-56343866D02*
X19858684Y-56343866D01*
X19477731Y-56724819D02*
X19477731Y-55962914D01*
X20192017Y-55724819D02*
X20525350Y-56724819D01*
X20525350Y-56724819D02*
X20858683Y-55724819D01*
X19049160Y-64297200D02*
X19192017Y-64344819D01*
X19192017Y-64344819D02*
X19430112Y-64344819D01*
X19430112Y-64344819D02*
X19525350Y-64297200D01*
X19525350Y-64297200D02*
X19572969Y-64249580D01*
X19572969Y-64249580D02*
X19620588Y-64154342D01*
X19620588Y-64154342D02*
X19620588Y-64059104D01*
X19620588Y-64059104D02*
X19572969Y-63963866D01*
X19572969Y-63963866D02*
X19525350Y-63916247D01*
X19525350Y-63916247D02*
X19430112Y-63868628D01*
X19430112Y-63868628D02*
X19239636Y-63821009D01*
X19239636Y-63821009D02*
X19144398Y-63773390D01*
X19144398Y-63773390D02*
X19096779Y-63725771D01*
X19096779Y-63725771D02*
X19049160Y-63630533D01*
X19049160Y-63630533D02*
X19049160Y-63535295D01*
X19049160Y-63535295D02*
X19096779Y-63440057D01*
X19096779Y-63440057D02*
X19144398Y-63392438D01*
X19144398Y-63392438D02*
X19239636Y-63344819D01*
X19239636Y-63344819D02*
X19477731Y-63344819D01*
X19477731Y-63344819D02*
X19620588Y-63392438D01*
X19953922Y-63344819D02*
X20192017Y-64344819D01*
X20192017Y-64344819D02*
X20382493Y-63630533D01*
X20382493Y-63630533D02*
X20572969Y-64344819D01*
X20572969Y-64344819D02*
X20811065Y-63344819D01*
X21715826Y-64344819D02*
X21144398Y-64344819D01*
X21430112Y-64344819D02*
X21430112Y-63344819D01*
X21430112Y-63344819D02*
X21334874Y-63487676D01*
X21334874Y-63487676D02*
X21239636Y-63582914D01*
X21239636Y-63582914D02*
X21144398Y-63630533D01*
X19001541Y-58264819D02*
X19668207Y-59264819D01*
X19668207Y-58264819D02*
X19001541Y-59264819D01*
X19287255Y-61328628D02*
X19287255Y-61804819D01*
X18953922Y-60804819D02*
X19287255Y-61328628D01*
X19287255Y-61328628D02*
X19620588Y-60804819D01*
X19049160Y-66837200D02*
X19192017Y-66884819D01*
X19192017Y-66884819D02*
X19430112Y-66884819D01*
X19430112Y-66884819D02*
X19525350Y-66837200D01*
X19525350Y-66837200D02*
X19572969Y-66789580D01*
X19572969Y-66789580D02*
X19620588Y-66694342D01*
X19620588Y-66694342D02*
X19620588Y-66599104D01*
X19620588Y-66599104D02*
X19572969Y-66503866D01*
X19572969Y-66503866D02*
X19525350Y-66456247D01*
X19525350Y-66456247D02*
X19430112Y-66408628D01*
X19430112Y-66408628D02*
X19239636Y-66361009D01*
X19239636Y-66361009D02*
X19144398Y-66313390D01*
X19144398Y-66313390D02*
X19096779Y-66265771D01*
X19096779Y-66265771D02*
X19049160Y-66170533D01*
X19049160Y-66170533D02*
X19049160Y-66075295D01*
X19049160Y-66075295D02*
X19096779Y-65980057D01*
X19096779Y-65980057D02*
X19144398Y-65932438D01*
X19144398Y-65932438D02*
X19239636Y-65884819D01*
X19239636Y-65884819D02*
X19477731Y-65884819D01*
X19477731Y-65884819D02*
X19620588Y-65932438D01*
X19953922Y-65884819D02*
X20192017Y-66884819D01*
X20192017Y-66884819D02*
X20382493Y-66170533D01*
X20382493Y-66170533D02*
X20572969Y-66884819D01*
X20572969Y-66884819D02*
X20811065Y-65884819D01*
X21144398Y-65980057D02*
X21192017Y-65932438D01*
X21192017Y-65932438D02*
X21287255Y-65884819D01*
X21287255Y-65884819D02*
X21525350Y-65884819D01*
X21525350Y-65884819D02*
X21620588Y-65932438D01*
X21620588Y-65932438D02*
X21668207Y-65980057D01*
X21668207Y-65980057D02*
X21715826Y-66075295D01*
X21715826Y-66075295D02*
X21715826Y-66170533D01*
X21715826Y-66170533D02*
X21668207Y-66313390D01*
X21668207Y-66313390D02*
X21096779Y-66884819D01*
X21096779Y-66884819D02*
X21715826Y-66884819D01*
X19620588Y-53232438D02*
X19525350Y-53184819D01*
X19525350Y-53184819D02*
X19382493Y-53184819D01*
X19382493Y-53184819D02*
X19239636Y-53232438D01*
X19239636Y-53232438D02*
X19144398Y-53327676D01*
X19144398Y-53327676D02*
X19096779Y-53422914D01*
X19096779Y-53422914D02*
X19049160Y-53613390D01*
X19049160Y-53613390D02*
X19049160Y-53756247D01*
X19049160Y-53756247D02*
X19096779Y-53946723D01*
X19096779Y-53946723D02*
X19144398Y-54041961D01*
X19144398Y-54041961D02*
X19239636Y-54137200D01*
X19239636Y-54137200D02*
X19382493Y-54184819D01*
X19382493Y-54184819D02*
X19477731Y-54184819D01*
X19477731Y-54184819D02*
X19620588Y-54137200D01*
X19620588Y-54137200D02*
X19668207Y-54089580D01*
X19668207Y-54089580D02*
X19668207Y-53756247D01*
X19668207Y-53756247D02*
X19477731Y-53756247D01*
X20096779Y-54184819D02*
X20096779Y-53184819D01*
X20096779Y-53184819D02*
X20668207Y-54184819D01*
X20668207Y-54184819D02*
X20668207Y-53184819D01*
X21144398Y-54184819D02*
X21144398Y-53184819D01*
X21144398Y-53184819D02*
X21382493Y-53184819D01*
X21382493Y-53184819D02*
X21525350Y-53232438D01*
X21525350Y-53232438D02*
X21620588Y-53327676D01*
X21620588Y-53327676D02*
X21668207Y-53422914D01*
X21668207Y-53422914D02*
X21715826Y-53613390D01*
X21715826Y-53613390D02*
X21715826Y-53756247D01*
X21715826Y-53756247D02*
X21668207Y-53946723D01*
X21668207Y-53946723D02*
X21620588Y-54041961D01*
X21620588Y-54041961D02*
X21525350Y-54137200D01*
X21525350Y-54137200D02*
X21382493Y-54184819D01*
X21382493Y-54184819D02*
X21144398Y-54184819D01*
X38417160Y-66837200D02*
X38560017Y-66884819D01*
X38560017Y-66884819D02*
X38798112Y-66884819D01*
X38798112Y-66884819D02*
X38893350Y-66837200D01*
X38893350Y-66837200D02*
X38940969Y-66789580D01*
X38940969Y-66789580D02*
X38988588Y-66694342D01*
X38988588Y-66694342D02*
X38988588Y-66599104D01*
X38988588Y-66599104D02*
X38940969Y-66503866D01*
X38940969Y-66503866D02*
X38893350Y-66456247D01*
X38893350Y-66456247D02*
X38798112Y-66408628D01*
X38798112Y-66408628D02*
X38607636Y-66361009D01*
X38607636Y-66361009D02*
X38512398Y-66313390D01*
X38512398Y-66313390D02*
X38464779Y-66265771D01*
X38464779Y-66265771D02*
X38417160Y-66170533D01*
X38417160Y-66170533D02*
X38417160Y-66075295D01*
X38417160Y-66075295D02*
X38464779Y-65980057D01*
X38464779Y-65980057D02*
X38512398Y-65932438D01*
X38512398Y-65932438D02*
X38607636Y-65884819D01*
X38607636Y-65884819D02*
X38845731Y-65884819D01*
X38845731Y-65884819D02*
X38988588Y-65932438D01*
X39321922Y-65884819D02*
X39560017Y-66884819D01*
X39560017Y-66884819D02*
X39750493Y-66170533D01*
X39750493Y-66170533D02*
X39940969Y-66884819D01*
X39940969Y-66884819D02*
X40179065Y-65884819D01*
X40512398Y-65980057D02*
X40560017Y-65932438D01*
X40560017Y-65932438D02*
X40655255Y-65884819D01*
X40655255Y-65884819D02*
X40893350Y-65884819D01*
X40893350Y-65884819D02*
X40988588Y-65932438D01*
X40988588Y-65932438D02*
X41036207Y-65980057D01*
X41036207Y-65980057D02*
X41083826Y-66075295D01*
X41083826Y-66075295D02*
X41083826Y-66170533D01*
X41083826Y-66170533D02*
X41036207Y-66313390D01*
X41036207Y-66313390D02*
X40464779Y-66884819D01*
X40464779Y-66884819D02*
X41083826Y-66884819D01*
X40845731Y-61328628D02*
X40845731Y-61804819D01*
X40512398Y-60804819D02*
X40845731Y-61328628D01*
X40845731Y-61328628D02*
X41179064Y-60804819D01*
X39417160Y-56343866D02*
X40179065Y-56343866D01*
X39798112Y-56724819D02*
X39798112Y-55962914D01*
X40512398Y-55724819D02*
X40845731Y-56724819D01*
X40845731Y-56724819D02*
X41179064Y-55724819D01*
X38417160Y-64297200D02*
X38560017Y-64344819D01*
X38560017Y-64344819D02*
X38798112Y-64344819D01*
X38798112Y-64344819D02*
X38893350Y-64297200D01*
X38893350Y-64297200D02*
X38940969Y-64249580D01*
X38940969Y-64249580D02*
X38988588Y-64154342D01*
X38988588Y-64154342D02*
X38988588Y-64059104D01*
X38988588Y-64059104D02*
X38940969Y-63963866D01*
X38940969Y-63963866D02*
X38893350Y-63916247D01*
X38893350Y-63916247D02*
X38798112Y-63868628D01*
X38798112Y-63868628D02*
X38607636Y-63821009D01*
X38607636Y-63821009D02*
X38512398Y-63773390D01*
X38512398Y-63773390D02*
X38464779Y-63725771D01*
X38464779Y-63725771D02*
X38417160Y-63630533D01*
X38417160Y-63630533D02*
X38417160Y-63535295D01*
X38417160Y-63535295D02*
X38464779Y-63440057D01*
X38464779Y-63440057D02*
X38512398Y-63392438D01*
X38512398Y-63392438D02*
X38607636Y-63344819D01*
X38607636Y-63344819D02*
X38845731Y-63344819D01*
X38845731Y-63344819D02*
X38988588Y-63392438D01*
X39321922Y-63344819D02*
X39560017Y-64344819D01*
X39560017Y-64344819D02*
X39750493Y-63630533D01*
X39750493Y-63630533D02*
X39940969Y-64344819D01*
X39940969Y-64344819D02*
X40179065Y-63344819D01*
X41083826Y-64344819D02*
X40512398Y-64344819D01*
X40798112Y-64344819D02*
X40798112Y-63344819D01*
X40798112Y-63344819D02*
X40702874Y-63487676D01*
X40702874Y-63487676D02*
X40607636Y-63582914D01*
X40607636Y-63582914D02*
X40512398Y-63630533D01*
X40464779Y-58264819D02*
X41131445Y-59264819D01*
X41131445Y-58264819D02*
X40464779Y-59264819D01*
X38988588Y-53232438D02*
X38893350Y-53184819D01*
X38893350Y-53184819D02*
X38750493Y-53184819D01*
X38750493Y-53184819D02*
X38607636Y-53232438D01*
X38607636Y-53232438D02*
X38512398Y-53327676D01*
X38512398Y-53327676D02*
X38464779Y-53422914D01*
X38464779Y-53422914D02*
X38417160Y-53613390D01*
X38417160Y-53613390D02*
X38417160Y-53756247D01*
X38417160Y-53756247D02*
X38464779Y-53946723D01*
X38464779Y-53946723D02*
X38512398Y-54041961D01*
X38512398Y-54041961D02*
X38607636Y-54137200D01*
X38607636Y-54137200D02*
X38750493Y-54184819D01*
X38750493Y-54184819D02*
X38845731Y-54184819D01*
X38845731Y-54184819D02*
X38988588Y-54137200D01*
X38988588Y-54137200D02*
X39036207Y-54089580D01*
X39036207Y-54089580D02*
X39036207Y-53756247D01*
X39036207Y-53756247D02*
X38845731Y-53756247D01*
X39464779Y-54184819D02*
X39464779Y-53184819D01*
X39464779Y-53184819D02*
X40036207Y-54184819D01*
X40036207Y-54184819D02*
X40036207Y-53184819D01*
X40512398Y-54184819D02*
X40512398Y-53184819D01*
X40512398Y-53184819D02*
X40750493Y-53184819D01*
X40750493Y-53184819D02*
X40893350Y-53232438D01*
X40893350Y-53232438D02*
X40988588Y-53327676D01*
X40988588Y-53327676D02*
X41036207Y-53422914D01*
X41036207Y-53422914D02*
X41083826Y-53613390D01*
X41083826Y-53613390D02*
X41083826Y-53756247D01*
X41083826Y-53756247D02*
X41036207Y-53946723D01*
X41036207Y-53946723D02*
X40988588Y-54041961D01*
X40988588Y-54041961D02*
X40893350Y-54137200D01*
X40893350Y-54137200D02*
X40750493Y-54184819D01*
X40750493Y-54184819D02*
X40512398Y-54184819D01*
X79096779Y-26343866D02*
X79858684Y-26343866D01*
X79477731Y-26724819D02*
X79477731Y-25962914D01*
X80192017Y-25724819D02*
X80525350Y-26724819D01*
X80525350Y-26724819D02*
X80858683Y-25724819D01*
X79001541Y-28264819D02*
X79668207Y-29264819D01*
X79668207Y-28264819D02*
X79001541Y-29264819D01*
X79620588Y-23232438D02*
X79525350Y-23184819D01*
X79525350Y-23184819D02*
X79382493Y-23184819D01*
X79382493Y-23184819D02*
X79239636Y-23232438D01*
X79239636Y-23232438D02*
X79144398Y-23327676D01*
X79144398Y-23327676D02*
X79096779Y-23422914D01*
X79096779Y-23422914D02*
X79049160Y-23613390D01*
X79049160Y-23613390D02*
X79049160Y-23756247D01*
X79049160Y-23756247D02*
X79096779Y-23946723D01*
X79096779Y-23946723D02*
X79144398Y-24041961D01*
X79144398Y-24041961D02*
X79239636Y-24137200D01*
X79239636Y-24137200D02*
X79382493Y-24184819D01*
X79382493Y-24184819D02*
X79477731Y-24184819D01*
X79477731Y-24184819D02*
X79620588Y-24137200D01*
X79620588Y-24137200D02*
X79668207Y-24089580D01*
X79668207Y-24089580D02*
X79668207Y-23756247D01*
X79668207Y-23756247D02*
X79477731Y-23756247D01*
X80096779Y-24184819D02*
X80096779Y-23184819D01*
X80096779Y-23184819D02*
X80668207Y-24184819D01*
X80668207Y-24184819D02*
X80668207Y-23184819D01*
X81144398Y-24184819D02*
X81144398Y-23184819D01*
X81144398Y-23184819D02*
X81382493Y-23184819D01*
X81382493Y-23184819D02*
X81525350Y-23232438D01*
X81525350Y-23232438D02*
X81620588Y-23327676D01*
X81620588Y-23327676D02*
X81668207Y-23422914D01*
X81668207Y-23422914D02*
X81715826Y-23613390D01*
X81715826Y-23613390D02*
X81715826Y-23756247D01*
X81715826Y-23756247D02*
X81668207Y-23946723D01*
X81668207Y-23946723D02*
X81620588Y-24041961D01*
X81620588Y-24041961D02*
X81525350Y-24137200D01*
X81525350Y-24137200D02*
X81382493Y-24184819D01*
X81382493Y-24184819D02*
X81144398Y-24184819D01*
X79049160Y-34297200D02*
X79192017Y-34344819D01*
X79192017Y-34344819D02*
X79430112Y-34344819D01*
X79430112Y-34344819D02*
X79525350Y-34297200D01*
X79525350Y-34297200D02*
X79572969Y-34249580D01*
X79572969Y-34249580D02*
X79620588Y-34154342D01*
X79620588Y-34154342D02*
X79620588Y-34059104D01*
X79620588Y-34059104D02*
X79572969Y-33963866D01*
X79572969Y-33963866D02*
X79525350Y-33916247D01*
X79525350Y-33916247D02*
X79430112Y-33868628D01*
X79430112Y-33868628D02*
X79239636Y-33821009D01*
X79239636Y-33821009D02*
X79144398Y-33773390D01*
X79144398Y-33773390D02*
X79096779Y-33725771D01*
X79096779Y-33725771D02*
X79049160Y-33630533D01*
X79049160Y-33630533D02*
X79049160Y-33535295D01*
X79049160Y-33535295D02*
X79096779Y-33440057D01*
X79096779Y-33440057D02*
X79144398Y-33392438D01*
X79144398Y-33392438D02*
X79239636Y-33344819D01*
X79239636Y-33344819D02*
X79477731Y-33344819D01*
X79477731Y-33344819D02*
X79620588Y-33392438D01*
X79953922Y-33344819D02*
X80192017Y-34344819D01*
X80192017Y-34344819D02*
X80382493Y-33630533D01*
X80382493Y-33630533D02*
X80572969Y-34344819D01*
X80572969Y-34344819D02*
X80811065Y-33344819D01*
X81715826Y-34344819D02*
X81144398Y-34344819D01*
X81430112Y-34344819D02*
X81430112Y-33344819D01*
X81430112Y-33344819D02*
X81334874Y-33487676D01*
X81334874Y-33487676D02*
X81239636Y-33582914D01*
X81239636Y-33582914D02*
X81144398Y-33630533D01*
X79049160Y-36837200D02*
X79192017Y-36884819D01*
X79192017Y-36884819D02*
X79430112Y-36884819D01*
X79430112Y-36884819D02*
X79525350Y-36837200D01*
X79525350Y-36837200D02*
X79572969Y-36789580D01*
X79572969Y-36789580D02*
X79620588Y-36694342D01*
X79620588Y-36694342D02*
X79620588Y-36599104D01*
X79620588Y-36599104D02*
X79572969Y-36503866D01*
X79572969Y-36503866D02*
X79525350Y-36456247D01*
X79525350Y-36456247D02*
X79430112Y-36408628D01*
X79430112Y-36408628D02*
X79239636Y-36361009D01*
X79239636Y-36361009D02*
X79144398Y-36313390D01*
X79144398Y-36313390D02*
X79096779Y-36265771D01*
X79096779Y-36265771D02*
X79049160Y-36170533D01*
X79049160Y-36170533D02*
X79049160Y-36075295D01*
X79049160Y-36075295D02*
X79096779Y-35980057D01*
X79096779Y-35980057D02*
X79144398Y-35932438D01*
X79144398Y-35932438D02*
X79239636Y-35884819D01*
X79239636Y-35884819D02*
X79477731Y-35884819D01*
X79477731Y-35884819D02*
X79620588Y-35932438D01*
X79953922Y-35884819D02*
X80192017Y-36884819D01*
X80192017Y-36884819D02*
X80382493Y-36170533D01*
X80382493Y-36170533D02*
X80572969Y-36884819D01*
X80572969Y-36884819D02*
X80811065Y-35884819D01*
X81144398Y-35980057D02*
X81192017Y-35932438D01*
X81192017Y-35932438D02*
X81287255Y-35884819D01*
X81287255Y-35884819D02*
X81525350Y-35884819D01*
X81525350Y-35884819D02*
X81620588Y-35932438D01*
X81620588Y-35932438D02*
X81668207Y-35980057D01*
X81668207Y-35980057D02*
X81715826Y-36075295D01*
X81715826Y-36075295D02*
X81715826Y-36170533D01*
X81715826Y-36170533D02*
X81668207Y-36313390D01*
X81668207Y-36313390D02*
X81096779Y-36884819D01*
X81096779Y-36884819D02*
X81715826Y-36884819D01*
X79287255Y-31328628D02*
X79287255Y-31804819D01*
X78953922Y-30804819D02*
X79287255Y-31328628D01*
X79287255Y-31328628D02*
X79620588Y-30804819D01*
X98417160Y-36837200D02*
X98560017Y-36884819D01*
X98560017Y-36884819D02*
X98798112Y-36884819D01*
X98798112Y-36884819D02*
X98893350Y-36837200D01*
X98893350Y-36837200D02*
X98940969Y-36789580D01*
X98940969Y-36789580D02*
X98988588Y-36694342D01*
X98988588Y-36694342D02*
X98988588Y-36599104D01*
X98988588Y-36599104D02*
X98940969Y-36503866D01*
X98940969Y-36503866D02*
X98893350Y-36456247D01*
X98893350Y-36456247D02*
X98798112Y-36408628D01*
X98798112Y-36408628D02*
X98607636Y-36361009D01*
X98607636Y-36361009D02*
X98512398Y-36313390D01*
X98512398Y-36313390D02*
X98464779Y-36265771D01*
X98464779Y-36265771D02*
X98417160Y-36170533D01*
X98417160Y-36170533D02*
X98417160Y-36075295D01*
X98417160Y-36075295D02*
X98464779Y-35980057D01*
X98464779Y-35980057D02*
X98512398Y-35932438D01*
X98512398Y-35932438D02*
X98607636Y-35884819D01*
X98607636Y-35884819D02*
X98845731Y-35884819D01*
X98845731Y-35884819D02*
X98988588Y-35932438D01*
X99321922Y-35884819D02*
X99560017Y-36884819D01*
X99560017Y-36884819D02*
X99750493Y-36170533D01*
X99750493Y-36170533D02*
X99940969Y-36884819D01*
X99940969Y-36884819D02*
X100179065Y-35884819D01*
X100512398Y-35980057D02*
X100560017Y-35932438D01*
X100560017Y-35932438D02*
X100655255Y-35884819D01*
X100655255Y-35884819D02*
X100893350Y-35884819D01*
X100893350Y-35884819D02*
X100988588Y-35932438D01*
X100988588Y-35932438D02*
X101036207Y-35980057D01*
X101036207Y-35980057D02*
X101083826Y-36075295D01*
X101083826Y-36075295D02*
X101083826Y-36170533D01*
X101083826Y-36170533D02*
X101036207Y-36313390D01*
X101036207Y-36313390D02*
X100464779Y-36884819D01*
X100464779Y-36884819D02*
X101083826Y-36884819D01*
X100845731Y-31328628D02*
X100845731Y-31804819D01*
X100512398Y-30804819D02*
X100845731Y-31328628D01*
X100845731Y-31328628D02*
X101179064Y-30804819D01*
X99417160Y-26343866D02*
X100179065Y-26343866D01*
X99798112Y-26724819D02*
X99798112Y-25962914D01*
X100512398Y-25724819D02*
X100845731Y-26724819D01*
X100845731Y-26724819D02*
X101179064Y-25724819D01*
X98417160Y-34297200D02*
X98560017Y-34344819D01*
X98560017Y-34344819D02*
X98798112Y-34344819D01*
X98798112Y-34344819D02*
X98893350Y-34297200D01*
X98893350Y-34297200D02*
X98940969Y-34249580D01*
X98940969Y-34249580D02*
X98988588Y-34154342D01*
X98988588Y-34154342D02*
X98988588Y-34059104D01*
X98988588Y-34059104D02*
X98940969Y-33963866D01*
X98940969Y-33963866D02*
X98893350Y-33916247D01*
X98893350Y-33916247D02*
X98798112Y-33868628D01*
X98798112Y-33868628D02*
X98607636Y-33821009D01*
X98607636Y-33821009D02*
X98512398Y-33773390D01*
X98512398Y-33773390D02*
X98464779Y-33725771D01*
X98464779Y-33725771D02*
X98417160Y-33630533D01*
X98417160Y-33630533D02*
X98417160Y-33535295D01*
X98417160Y-33535295D02*
X98464779Y-33440057D01*
X98464779Y-33440057D02*
X98512398Y-33392438D01*
X98512398Y-33392438D02*
X98607636Y-33344819D01*
X98607636Y-33344819D02*
X98845731Y-33344819D01*
X98845731Y-33344819D02*
X98988588Y-33392438D01*
X99321922Y-33344819D02*
X99560017Y-34344819D01*
X99560017Y-34344819D02*
X99750493Y-33630533D01*
X99750493Y-33630533D02*
X99940969Y-34344819D01*
X99940969Y-34344819D02*
X100179065Y-33344819D01*
X101083826Y-34344819D02*
X100512398Y-34344819D01*
X100798112Y-34344819D02*
X100798112Y-33344819D01*
X100798112Y-33344819D02*
X100702874Y-33487676D01*
X100702874Y-33487676D02*
X100607636Y-33582914D01*
X100607636Y-33582914D02*
X100512398Y-33630533D01*
X100464779Y-28264819D02*
X101131445Y-29264819D01*
X101131445Y-28264819D02*
X100464779Y-29264819D01*
X98988588Y-23232438D02*
X98893350Y-23184819D01*
X98893350Y-23184819D02*
X98750493Y-23184819D01*
X98750493Y-23184819D02*
X98607636Y-23232438D01*
X98607636Y-23232438D02*
X98512398Y-23327676D01*
X98512398Y-23327676D02*
X98464779Y-23422914D01*
X98464779Y-23422914D02*
X98417160Y-23613390D01*
X98417160Y-23613390D02*
X98417160Y-23756247D01*
X98417160Y-23756247D02*
X98464779Y-23946723D01*
X98464779Y-23946723D02*
X98512398Y-24041961D01*
X98512398Y-24041961D02*
X98607636Y-24137200D01*
X98607636Y-24137200D02*
X98750493Y-24184819D01*
X98750493Y-24184819D02*
X98845731Y-24184819D01*
X98845731Y-24184819D02*
X98988588Y-24137200D01*
X98988588Y-24137200D02*
X99036207Y-24089580D01*
X99036207Y-24089580D02*
X99036207Y-23756247D01*
X99036207Y-23756247D02*
X98845731Y-23756247D01*
X99464779Y-24184819D02*
X99464779Y-23184819D01*
X99464779Y-23184819D02*
X100036207Y-24184819D01*
X100036207Y-24184819D02*
X100036207Y-23184819D01*
X100512398Y-24184819D02*
X100512398Y-23184819D01*
X100512398Y-23184819D02*
X100750493Y-23184819D01*
X100750493Y-23184819D02*
X100893350Y-23232438D01*
X100893350Y-23232438D02*
X100988588Y-23327676D01*
X100988588Y-23327676D02*
X101036207Y-23422914D01*
X101036207Y-23422914D02*
X101083826Y-23613390D01*
X101083826Y-23613390D02*
X101083826Y-23756247D01*
X101083826Y-23756247D02*
X101036207Y-23946723D01*
X101036207Y-23946723D02*
X100988588Y-24041961D01*
X100988588Y-24041961D02*
X100893350Y-24137200D01*
X100893350Y-24137200D02*
X100750493Y-24184819D01*
X100750493Y-24184819D02*
X100512398Y-24184819D01*
X49001541Y-28264819D02*
X49668207Y-29264819D01*
X49668207Y-28264819D02*
X49001541Y-29264819D01*
X49096779Y-26343866D02*
X49858684Y-26343866D01*
X49477731Y-26724819D02*
X49477731Y-25962914D01*
X50192017Y-25724819D02*
X50525350Y-26724819D01*
X50525350Y-26724819D02*
X50858683Y-25724819D01*
X49620588Y-23232438D02*
X49525350Y-23184819D01*
X49525350Y-23184819D02*
X49382493Y-23184819D01*
X49382493Y-23184819D02*
X49239636Y-23232438D01*
X49239636Y-23232438D02*
X49144398Y-23327676D01*
X49144398Y-23327676D02*
X49096779Y-23422914D01*
X49096779Y-23422914D02*
X49049160Y-23613390D01*
X49049160Y-23613390D02*
X49049160Y-23756247D01*
X49049160Y-23756247D02*
X49096779Y-23946723D01*
X49096779Y-23946723D02*
X49144398Y-24041961D01*
X49144398Y-24041961D02*
X49239636Y-24137200D01*
X49239636Y-24137200D02*
X49382493Y-24184819D01*
X49382493Y-24184819D02*
X49477731Y-24184819D01*
X49477731Y-24184819D02*
X49620588Y-24137200D01*
X49620588Y-24137200D02*
X49668207Y-24089580D01*
X49668207Y-24089580D02*
X49668207Y-23756247D01*
X49668207Y-23756247D02*
X49477731Y-23756247D01*
X50096779Y-24184819D02*
X50096779Y-23184819D01*
X50096779Y-23184819D02*
X50668207Y-24184819D01*
X50668207Y-24184819D02*
X50668207Y-23184819D01*
X51144398Y-24184819D02*
X51144398Y-23184819D01*
X51144398Y-23184819D02*
X51382493Y-23184819D01*
X51382493Y-23184819D02*
X51525350Y-23232438D01*
X51525350Y-23232438D02*
X51620588Y-23327676D01*
X51620588Y-23327676D02*
X51668207Y-23422914D01*
X51668207Y-23422914D02*
X51715826Y-23613390D01*
X51715826Y-23613390D02*
X51715826Y-23756247D01*
X51715826Y-23756247D02*
X51668207Y-23946723D01*
X51668207Y-23946723D02*
X51620588Y-24041961D01*
X51620588Y-24041961D02*
X51525350Y-24137200D01*
X51525350Y-24137200D02*
X51382493Y-24184819D01*
X51382493Y-24184819D02*
X51144398Y-24184819D01*
X49049160Y-34297200D02*
X49192017Y-34344819D01*
X49192017Y-34344819D02*
X49430112Y-34344819D01*
X49430112Y-34344819D02*
X49525350Y-34297200D01*
X49525350Y-34297200D02*
X49572969Y-34249580D01*
X49572969Y-34249580D02*
X49620588Y-34154342D01*
X49620588Y-34154342D02*
X49620588Y-34059104D01*
X49620588Y-34059104D02*
X49572969Y-33963866D01*
X49572969Y-33963866D02*
X49525350Y-33916247D01*
X49525350Y-33916247D02*
X49430112Y-33868628D01*
X49430112Y-33868628D02*
X49239636Y-33821009D01*
X49239636Y-33821009D02*
X49144398Y-33773390D01*
X49144398Y-33773390D02*
X49096779Y-33725771D01*
X49096779Y-33725771D02*
X49049160Y-33630533D01*
X49049160Y-33630533D02*
X49049160Y-33535295D01*
X49049160Y-33535295D02*
X49096779Y-33440057D01*
X49096779Y-33440057D02*
X49144398Y-33392438D01*
X49144398Y-33392438D02*
X49239636Y-33344819D01*
X49239636Y-33344819D02*
X49477731Y-33344819D01*
X49477731Y-33344819D02*
X49620588Y-33392438D01*
X49953922Y-33344819D02*
X50192017Y-34344819D01*
X50192017Y-34344819D02*
X50382493Y-33630533D01*
X50382493Y-33630533D02*
X50572969Y-34344819D01*
X50572969Y-34344819D02*
X50811065Y-33344819D01*
X51715826Y-34344819D02*
X51144398Y-34344819D01*
X51430112Y-34344819D02*
X51430112Y-33344819D01*
X51430112Y-33344819D02*
X51334874Y-33487676D01*
X51334874Y-33487676D02*
X51239636Y-33582914D01*
X51239636Y-33582914D02*
X51144398Y-33630533D01*
X49049160Y-36837200D02*
X49192017Y-36884819D01*
X49192017Y-36884819D02*
X49430112Y-36884819D01*
X49430112Y-36884819D02*
X49525350Y-36837200D01*
X49525350Y-36837200D02*
X49572969Y-36789580D01*
X49572969Y-36789580D02*
X49620588Y-36694342D01*
X49620588Y-36694342D02*
X49620588Y-36599104D01*
X49620588Y-36599104D02*
X49572969Y-36503866D01*
X49572969Y-36503866D02*
X49525350Y-36456247D01*
X49525350Y-36456247D02*
X49430112Y-36408628D01*
X49430112Y-36408628D02*
X49239636Y-36361009D01*
X49239636Y-36361009D02*
X49144398Y-36313390D01*
X49144398Y-36313390D02*
X49096779Y-36265771D01*
X49096779Y-36265771D02*
X49049160Y-36170533D01*
X49049160Y-36170533D02*
X49049160Y-36075295D01*
X49049160Y-36075295D02*
X49096779Y-35980057D01*
X49096779Y-35980057D02*
X49144398Y-35932438D01*
X49144398Y-35932438D02*
X49239636Y-35884819D01*
X49239636Y-35884819D02*
X49477731Y-35884819D01*
X49477731Y-35884819D02*
X49620588Y-35932438D01*
X49953922Y-35884819D02*
X50192017Y-36884819D01*
X50192017Y-36884819D02*
X50382493Y-36170533D01*
X50382493Y-36170533D02*
X50572969Y-36884819D01*
X50572969Y-36884819D02*
X50811065Y-35884819D01*
X51144398Y-35980057D02*
X51192017Y-35932438D01*
X51192017Y-35932438D02*
X51287255Y-35884819D01*
X51287255Y-35884819D02*
X51525350Y-35884819D01*
X51525350Y-35884819D02*
X51620588Y-35932438D01*
X51620588Y-35932438D02*
X51668207Y-35980057D01*
X51668207Y-35980057D02*
X51715826Y-36075295D01*
X51715826Y-36075295D02*
X51715826Y-36170533D01*
X51715826Y-36170533D02*
X51668207Y-36313390D01*
X51668207Y-36313390D02*
X51096779Y-36884819D01*
X51096779Y-36884819D02*
X51715826Y-36884819D01*
X49287255Y-31328628D02*
X49287255Y-31804819D01*
X48953922Y-30804819D02*
X49287255Y-31328628D01*
X49287255Y-31328628D02*
X49620588Y-30804819D01*
X68417160Y-36837200D02*
X68560017Y-36884819D01*
X68560017Y-36884819D02*
X68798112Y-36884819D01*
X68798112Y-36884819D02*
X68893350Y-36837200D01*
X68893350Y-36837200D02*
X68940969Y-36789580D01*
X68940969Y-36789580D02*
X68988588Y-36694342D01*
X68988588Y-36694342D02*
X68988588Y-36599104D01*
X68988588Y-36599104D02*
X68940969Y-36503866D01*
X68940969Y-36503866D02*
X68893350Y-36456247D01*
X68893350Y-36456247D02*
X68798112Y-36408628D01*
X68798112Y-36408628D02*
X68607636Y-36361009D01*
X68607636Y-36361009D02*
X68512398Y-36313390D01*
X68512398Y-36313390D02*
X68464779Y-36265771D01*
X68464779Y-36265771D02*
X68417160Y-36170533D01*
X68417160Y-36170533D02*
X68417160Y-36075295D01*
X68417160Y-36075295D02*
X68464779Y-35980057D01*
X68464779Y-35980057D02*
X68512398Y-35932438D01*
X68512398Y-35932438D02*
X68607636Y-35884819D01*
X68607636Y-35884819D02*
X68845731Y-35884819D01*
X68845731Y-35884819D02*
X68988588Y-35932438D01*
X69321922Y-35884819D02*
X69560017Y-36884819D01*
X69560017Y-36884819D02*
X69750493Y-36170533D01*
X69750493Y-36170533D02*
X69940969Y-36884819D01*
X69940969Y-36884819D02*
X70179065Y-35884819D01*
X70512398Y-35980057D02*
X70560017Y-35932438D01*
X70560017Y-35932438D02*
X70655255Y-35884819D01*
X70655255Y-35884819D02*
X70893350Y-35884819D01*
X70893350Y-35884819D02*
X70988588Y-35932438D01*
X70988588Y-35932438D02*
X71036207Y-35980057D01*
X71036207Y-35980057D02*
X71083826Y-36075295D01*
X71083826Y-36075295D02*
X71083826Y-36170533D01*
X71083826Y-36170533D02*
X71036207Y-36313390D01*
X71036207Y-36313390D02*
X70464779Y-36884819D01*
X70464779Y-36884819D02*
X71083826Y-36884819D01*
X70845731Y-31328628D02*
X70845731Y-31804819D01*
X70512398Y-30804819D02*
X70845731Y-31328628D01*
X70845731Y-31328628D02*
X71179064Y-30804819D01*
X69417160Y-26343866D02*
X70179065Y-26343866D01*
X69798112Y-26724819D02*
X69798112Y-25962914D01*
X70512398Y-25724819D02*
X70845731Y-26724819D01*
X70845731Y-26724819D02*
X71179064Y-25724819D01*
X68417160Y-34297200D02*
X68560017Y-34344819D01*
X68560017Y-34344819D02*
X68798112Y-34344819D01*
X68798112Y-34344819D02*
X68893350Y-34297200D01*
X68893350Y-34297200D02*
X68940969Y-34249580D01*
X68940969Y-34249580D02*
X68988588Y-34154342D01*
X68988588Y-34154342D02*
X68988588Y-34059104D01*
X68988588Y-34059104D02*
X68940969Y-33963866D01*
X68940969Y-33963866D02*
X68893350Y-33916247D01*
X68893350Y-33916247D02*
X68798112Y-33868628D01*
X68798112Y-33868628D02*
X68607636Y-33821009D01*
X68607636Y-33821009D02*
X68512398Y-33773390D01*
X68512398Y-33773390D02*
X68464779Y-33725771D01*
X68464779Y-33725771D02*
X68417160Y-33630533D01*
X68417160Y-33630533D02*
X68417160Y-33535295D01*
X68417160Y-33535295D02*
X68464779Y-33440057D01*
X68464779Y-33440057D02*
X68512398Y-33392438D01*
X68512398Y-33392438D02*
X68607636Y-33344819D01*
X68607636Y-33344819D02*
X68845731Y-33344819D01*
X68845731Y-33344819D02*
X68988588Y-33392438D01*
X69321922Y-33344819D02*
X69560017Y-34344819D01*
X69560017Y-34344819D02*
X69750493Y-33630533D01*
X69750493Y-33630533D02*
X69940969Y-34344819D01*
X69940969Y-34344819D02*
X70179065Y-33344819D01*
X71083826Y-34344819D02*
X70512398Y-34344819D01*
X70798112Y-34344819D02*
X70798112Y-33344819D01*
X70798112Y-33344819D02*
X70702874Y-33487676D01*
X70702874Y-33487676D02*
X70607636Y-33582914D01*
X70607636Y-33582914D02*
X70512398Y-33630533D01*
X70464779Y-28264819D02*
X71131445Y-29264819D01*
X71131445Y-28264819D02*
X70464779Y-29264819D01*
X68988588Y-23232438D02*
X68893350Y-23184819D01*
X68893350Y-23184819D02*
X68750493Y-23184819D01*
X68750493Y-23184819D02*
X68607636Y-23232438D01*
X68607636Y-23232438D02*
X68512398Y-23327676D01*
X68512398Y-23327676D02*
X68464779Y-23422914D01*
X68464779Y-23422914D02*
X68417160Y-23613390D01*
X68417160Y-23613390D02*
X68417160Y-23756247D01*
X68417160Y-23756247D02*
X68464779Y-23946723D01*
X68464779Y-23946723D02*
X68512398Y-24041961D01*
X68512398Y-24041961D02*
X68607636Y-24137200D01*
X68607636Y-24137200D02*
X68750493Y-24184819D01*
X68750493Y-24184819D02*
X68845731Y-24184819D01*
X68845731Y-24184819D02*
X68988588Y-24137200D01*
X68988588Y-24137200D02*
X69036207Y-24089580D01*
X69036207Y-24089580D02*
X69036207Y-23756247D01*
X69036207Y-23756247D02*
X68845731Y-23756247D01*
X69464779Y-24184819D02*
X69464779Y-23184819D01*
X69464779Y-23184819D02*
X70036207Y-24184819D01*
X70036207Y-24184819D02*
X70036207Y-23184819D01*
X70512398Y-24184819D02*
X70512398Y-23184819D01*
X70512398Y-23184819D02*
X70750493Y-23184819D01*
X70750493Y-23184819D02*
X70893350Y-23232438D01*
X70893350Y-23232438D02*
X70988588Y-23327676D01*
X70988588Y-23327676D02*
X71036207Y-23422914D01*
X71036207Y-23422914D02*
X71083826Y-23613390D01*
X71083826Y-23613390D02*
X71083826Y-23756247D01*
X71083826Y-23756247D02*
X71036207Y-23946723D01*
X71036207Y-23946723D02*
X70988588Y-24041961D01*
X70988588Y-24041961D02*
X70893350Y-24137200D01*
X70893350Y-24137200D02*
X70750493Y-24184819D01*
X70750493Y-24184819D02*
X70512398Y-24184819D01*
X19049160Y-34297200D02*
X19192017Y-34344819D01*
X19192017Y-34344819D02*
X19430112Y-34344819D01*
X19430112Y-34344819D02*
X19525350Y-34297200D01*
X19525350Y-34297200D02*
X19572969Y-34249580D01*
X19572969Y-34249580D02*
X19620588Y-34154342D01*
X19620588Y-34154342D02*
X19620588Y-34059104D01*
X19620588Y-34059104D02*
X19572969Y-33963866D01*
X19572969Y-33963866D02*
X19525350Y-33916247D01*
X19525350Y-33916247D02*
X19430112Y-33868628D01*
X19430112Y-33868628D02*
X19239636Y-33821009D01*
X19239636Y-33821009D02*
X19144398Y-33773390D01*
X19144398Y-33773390D02*
X19096779Y-33725771D01*
X19096779Y-33725771D02*
X19049160Y-33630533D01*
X19049160Y-33630533D02*
X19049160Y-33535295D01*
X19049160Y-33535295D02*
X19096779Y-33440057D01*
X19096779Y-33440057D02*
X19144398Y-33392438D01*
X19144398Y-33392438D02*
X19239636Y-33344819D01*
X19239636Y-33344819D02*
X19477731Y-33344819D01*
X19477731Y-33344819D02*
X19620588Y-33392438D01*
X19953922Y-33344819D02*
X20192017Y-34344819D01*
X20192017Y-34344819D02*
X20382493Y-33630533D01*
X20382493Y-33630533D02*
X20572969Y-34344819D01*
X20572969Y-34344819D02*
X20811065Y-33344819D01*
X21715826Y-34344819D02*
X21144398Y-34344819D01*
X21430112Y-34344819D02*
X21430112Y-33344819D01*
X21430112Y-33344819D02*
X21334874Y-33487676D01*
X21334874Y-33487676D02*
X21239636Y-33582914D01*
X21239636Y-33582914D02*
X21144398Y-33630533D01*
X19049160Y-36837200D02*
X19192017Y-36884819D01*
X19192017Y-36884819D02*
X19430112Y-36884819D01*
X19430112Y-36884819D02*
X19525350Y-36837200D01*
X19525350Y-36837200D02*
X19572969Y-36789580D01*
X19572969Y-36789580D02*
X19620588Y-36694342D01*
X19620588Y-36694342D02*
X19620588Y-36599104D01*
X19620588Y-36599104D02*
X19572969Y-36503866D01*
X19572969Y-36503866D02*
X19525350Y-36456247D01*
X19525350Y-36456247D02*
X19430112Y-36408628D01*
X19430112Y-36408628D02*
X19239636Y-36361009D01*
X19239636Y-36361009D02*
X19144398Y-36313390D01*
X19144398Y-36313390D02*
X19096779Y-36265771D01*
X19096779Y-36265771D02*
X19049160Y-36170533D01*
X19049160Y-36170533D02*
X19049160Y-36075295D01*
X19049160Y-36075295D02*
X19096779Y-35980057D01*
X19096779Y-35980057D02*
X19144398Y-35932438D01*
X19144398Y-35932438D02*
X19239636Y-35884819D01*
X19239636Y-35884819D02*
X19477731Y-35884819D01*
X19477731Y-35884819D02*
X19620588Y-35932438D01*
X19953922Y-35884819D02*
X20192017Y-36884819D01*
X20192017Y-36884819D02*
X20382493Y-36170533D01*
X20382493Y-36170533D02*
X20572969Y-36884819D01*
X20572969Y-36884819D02*
X20811065Y-35884819D01*
X21144398Y-35980057D02*
X21192017Y-35932438D01*
X21192017Y-35932438D02*
X21287255Y-35884819D01*
X21287255Y-35884819D02*
X21525350Y-35884819D01*
X21525350Y-35884819D02*
X21620588Y-35932438D01*
X21620588Y-35932438D02*
X21668207Y-35980057D01*
X21668207Y-35980057D02*
X21715826Y-36075295D01*
X21715826Y-36075295D02*
X21715826Y-36170533D01*
X21715826Y-36170533D02*
X21668207Y-36313390D01*
X21668207Y-36313390D02*
X21096779Y-36884819D01*
X21096779Y-36884819D02*
X21715826Y-36884819D01*
X38417160Y-34297200D02*
X38560017Y-34344819D01*
X38560017Y-34344819D02*
X38798112Y-34344819D01*
X38798112Y-34344819D02*
X38893350Y-34297200D01*
X38893350Y-34297200D02*
X38940969Y-34249580D01*
X38940969Y-34249580D02*
X38988588Y-34154342D01*
X38988588Y-34154342D02*
X38988588Y-34059104D01*
X38988588Y-34059104D02*
X38940969Y-33963866D01*
X38940969Y-33963866D02*
X38893350Y-33916247D01*
X38893350Y-33916247D02*
X38798112Y-33868628D01*
X38798112Y-33868628D02*
X38607636Y-33821009D01*
X38607636Y-33821009D02*
X38512398Y-33773390D01*
X38512398Y-33773390D02*
X38464779Y-33725771D01*
X38464779Y-33725771D02*
X38417160Y-33630533D01*
X38417160Y-33630533D02*
X38417160Y-33535295D01*
X38417160Y-33535295D02*
X38464779Y-33440057D01*
X38464779Y-33440057D02*
X38512398Y-33392438D01*
X38512398Y-33392438D02*
X38607636Y-33344819D01*
X38607636Y-33344819D02*
X38845731Y-33344819D01*
X38845731Y-33344819D02*
X38988588Y-33392438D01*
X39321922Y-33344819D02*
X39560017Y-34344819D01*
X39560017Y-34344819D02*
X39750493Y-33630533D01*
X39750493Y-33630533D02*
X39940969Y-34344819D01*
X39940969Y-34344819D02*
X40179065Y-33344819D01*
X41083826Y-34344819D02*
X40512398Y-34344819D01*
X40798112Y-34344819D02*
X40798112Y-33344819D01*
X40798112Y-33344819D02*
X40702874Y-33487676D01*
X40702874Y-33487676D02*
X40607636Y-33582914D01*
X40607636Y-33582914D02*
X40512398Y-33630533D01*
X40464779Y-28264819D02*
X41131445Y-29264819D01*
X41131445Y-28264819D02*
X40464779Y-29264819D01*
X40845731Y-31328628D02*
X40845731Y-31804819D01*
X40512398Y-30804819D02*
X40845731Y-31328628D01*
X40845731Y-31328628D02*
X41179064Y-30804819D01*
X39417160Y-26343866D02*
X40179065Y-26343866D01*
X39798112Y-26724819D02*
X39798112Y-25962914D01*
X40512398Y-25724819D02*
X40845731Y-26724819D01*
X40845731Y-26724819D02*
X41179064Y-25724819D01*
X38417160Y-36837200D02*
X38560017Y-36884819D01*
X38560017Y-36884819D02*
X38798112Y-36884819D01*
X38798112Y-36884819D02*
X38893350Y-36837200D01*
X38893350Y-36837200D02*
X38940969Y-36789580D01*
X38940969Y-36789580D02*
X38988588Y-36694342D01*
X38988588Y-36694342D02*
X38988588Y-36599104D01*
X38988588Y-36599104D02*
X38940969Y-36503866D01*
X38940969Y-36503866D02*
X38893350Y-36456247D01*
X38893350Y-36456247D02*
X38798112Y-36408628D01*
X38798112Y-36408628D02*
X38607636Y-36361009D01*
X38607636Y-36361009D02*
X38512398Y-36313390D01*
X38512398Y-36313390D02*
X38464779Y-36265771D01*
X38464779Y-36265771D02*
X38417160Y-36170533D01*
X38417160Y-36170533D02*
X38417160Y-36075295D01*
X38417160Y-36075295D02*
X38464779Y-35980057D01*
X38464779Y-35980057D02*
X38512398Y-35932438D01*
X38512398Y-35932438D02*
X38607636Y-35884819D01*
X38607636Y-35884819D02*
X38845731Y-35884819D01*
X38845731Y-35884819D02*
X38988588Y-35932438D01*
X39321922Y-35884819D02*
X39560017Y-36884819D01*
X39560017Y-36884819D02*
X39750493Y-36170533D01*
X39750493Y-36170533D02*
X39940969Y-36884819D01*
X39940969Y-36884819D02*
X40179065Y-35884819D01*
X40512398Y-35980057D02*
X40560017Y-35932438D01*
X40560017Y-35932438D02*
X40655255Y-35884819D01*
X40655255Y-35884819D02*
X40893350Y-35884819D01*
X40893350Y-35884819D02*
X40988588Y-35932438D01*
X40988588Y-35932438D02*
X41036207Y-35980057D01*
X41036207Y-35980057D02*
X41083826Y-36075295D01*
X41083826Y-36075295D02*
X41083826Y-36170533D01*
X41083826Y-36170533D02*
X41036207Y-36313390D01*
X41036207Y-36313390D02*
X40464779Y-36884819D01*
X40464779Y-36884819D02*
X41083826Y-36884819D01*
X38988588Y-23232438D02*
X38893350Y-23184819D01*
X38893350Y-23184819D02*
X38750493Y-23184819D01*
X38750493Y-23184819D02*
X38607636Y-23232438D01*
X38607636Y-23232438D02*
X38512398Y-23327676D01*
X38512398Y-23327676D02*
X38464779Y-23422914D01*
X38464779Y-23422914D02*
X38417160Y-23613390D01*
X38417160Y-23613390D02*
X38417160Y-23756247D01*
X38417160Y-23756247D02*
X38464779Y-23946723D01*
X38464779Y-23946723D02*
X38512398Y-24041961D01*
X38512398Y-24041961D02*
X38607636Y-24137200D01*
X38607636Y-24137200D02*
X38750493Y-24184819D01*
X38750493Y-24184819D02*
X38845731Y-24184819D01*
X38845731Y-24184819D02*
X38988588Y-24137200D01*
X38988588Y-24137200D02*
X39036207Y-24089580D01*
X39036207Y-24089580D02*
X39036207Y-23756247D01*
X39036207Y-23756247D02*
X38845731Y-23756247D01*
X39464779Y-24184819D02*
X39464779Y-23184819D01*
X39464779Y-23184819D02*
X40036207Y-24184819D01*
X40036207Y-24184819D02*
X40036207Y-23184819D01*
X40512398Y-24184819D02*
X40512398Y-23184819D01*
X40512398Y-23184819D02*
X40750493Y-23184819D01*
X40750493Y-23184819D02*
X40893350Y-23232438D01*
X40893350Y-23232438D02*
X40988588Y-23327676D01*
X40988588Y-23327676D02*
X41036207Y-23422914D01*
X41036207Y-23422914D02*
X41083826Y-23613390D01*
X41083826Y-23613390D02*
X41083826Y-23756247D01*
X41083826Y-23756247D02*
X41036207Y-23946723D01*
X41036207Y-23946723D02*
X40988588Y-24041961D01*
X40988588Y-24041961D02*
X40893350Y-24137200D01*
X40893350Y-24137200D02*
X40750493Y-24184819D01*
X40750493Y-24184819D02*
X40512398Y-24184819D01*
X19001541Y-28264819D02*
X19668207Y-29264819D01*
X19668207Y-28264819D02*
X19001541Y-29264819D01*
X19096779Y-26343866D02*
X19858684Y-26343866D01*
X19477731Y-26724819D02*
X19477731Y-25962914D01*
X20192017Y-25724819D02*
X20525350Y-26724819D01*
X20525350Y-26724819D02*
X20858683Y-25724819D01*
X19287255Y-31328628D02*
X19287255Y-31804819D01*
X18953922Y-30804819D02*
X19287255Y-31328628D01*
X19287255Y-31328628D02*
X19620588Y-30804819D01*
X19620588Y-23232438D02*
X19525350Y-23184819D01*
X19525350Y-23184819D02*
X19382493Y-23184819D01*
X19382493Y-23184819D02*
X19239636Y-23232438D01*
X19239636Y-23232438D02*
X19144398Y-23327676D01*
X19144398Y-23327676D02*
X19096779Y-23422914D01*
X19096779Y-23422914D02*
X19049160Y-23613390D01*
X19049160Y-23613390D02*
X19049160Y-23756247D01*
X19049160Y-23756247D02*
X19096779Y-23946723D01*
X19096779Y-23946723D02*
X19144398Y-24041961D01*
X19144398Y-24041961D02*
X19239636Y-24137200D01*
X19239636Y-24137200D02*
X19382493Y-24184819D01*
X19382493Y-24184819D02*
X19477731Y-24184819D01*
X19477731Y-24184819D02*
X19620588Y-24137200D01*
X19620588Y-24137200D02*
X19668207Y-24089580D01*
X19668207Y-24089580D02*
X19668207Y-23756247D01*
X19668207Y-23756247D02*
X19477731Y-23756247D01*
X20096779Y-24184819D02*
X20096779Y-23184819D01*
X20096779Y-23184819D02*
X20668207Y-24184819D01*
X20668207Y-24184819D02*
X20668207Y-23184819D01*
X21144398Y-24184819D02*
X21144398Y-23184819D01*
X21144398Y-23184819D02*
X21382493Y-23184819D01*
X21382493Y-23184819D02*
X21525350Y-23232438D01*
X21525350Y-23232438D02*
X21620588Y-23327676D01*
X21620588Y-23327676D02*
X21668207Y-23422914D01*
X21668207Y-23422914D02*
X21715826Y-23613390D01*
X21715826Y-23613390D02*
X21715826Y-23756247D01*
X21715826Y-23756247D02*
X21668207Y-23946723D01*
X21668207Y-23946723D02*
X21620588Y-24041961D01*
X21620588Y-24041961D02*
X21525350Y-24137200D01*
X21525350Y-24137200D02*
X21382493Y-24184819D01*
X21382493Y-24184819D02*
X21144398Y-24184819D01*
D11*
%TO.C,J1*%
X75970000Y-82350000D02*
X77300000Y-82350000D01*
X75970000Y-83680000D02*
X75970000Y-82350000D01*
X75970000Y-84950000D02*
X75970000Y-97710000D01*
X75970000Y-84950000D02*
X78630000Y-84950000D01*
X75970000Y-97710000D02*
X78630000Y-97710000D01*
X78630000Y-84950000D02*
X78630000Y-97710000D01*
%TO.C,U1*%
D12*
X83400000Y-83305000D02*
X96600000Y-83305000D01*
X96600000Y-96505000D01*
X83400000Y-96505000D01*
X83400000Y-83305000D01*
D11*
%TO.C,J2*%
X101370000Y-82350000D02*
X102700000Y-82350000D01*
X101370000Y-83680000D02*
X101370000Y-82350000D01*
X101370000Y-84950000D02*
X101370000Y-97710000D01*
X101370000Y-84950000D02*
X104030000Y-84950000D01*
X101370000Y-97710000D02*
X104030000Y-97710000D01*
X104030000Y-84950000D02*
X104030000Y-97710000D01*
%TO.C,J1*%
X45970000Y-82350000D02*
X47300000Y-82350000D01*
X45970000Y-83680000D02*
X45970000Y-82350000D01*
X45970000Y-84950000D02*
X45970000Y-97710000D01*
X45970000Y-84950000D02*
X48630000Y-84950000D01*
X45970000Y-97710000D02*
X48630000Y-97710000D01*
X48630000Y-84950000D02*
X48630000Y-97710000D01*
%TO.C,U1*%
D12*
X53400000Y-83305000D02*
X66600000Y-83305000D01*
X66600000Y-96505000D01*
X53400000Y-96505000D01*
X53400000Y-83305000D01*
D11*
%TO.C,J2*%
X71370000Y-82350000D02*
X72700000Y-82350000D01*
X71370000Y-83680000D02*
X71370000Y-82350000D01*
X71370000Y-84950000D02*
X71370000Y-97710000D01*
X71370000Y-84950000D02*
X74030000Y-84950000D01*
X71370000Y-97710000D02*
X74030000Y-97710000D01*
X74030000Y-84950000D02*
X74030000Y-97710000D01*
%TO.C,J1*%
X15970000Y-82350000D02*
X17300000Y-82350000D01*
X15970000Y-83680000D02*
X15970000Y-82350000D01*
X15970000Y-84950000D02*
X15970000Y-97710000D01*
X15970000Y-84950000D02*
X18630000Y-84950000D01*
X15970000Y-97710000D02*
X18630000Y-97710000D01*
X18630000Y-84950000D02*
X18630000Y-97710000D01*
%TO.C,U1*%
D12*
X23400000Y-83305000D02*
X36600000Y-83305000D01*
X36600000Y-96505000D01*
X23400000Y-96505000D01*
X23400000Y-83305000D01*
D11*
%TO.C,J2*%
X41370000Y-82350000D02*
X42700000Y-82350000D01*
X41370000Y-83680000D02*
X41370000Y-82350000D01*
X41370000Y-84950000D02*
X41370000Y-97710000D01*
X41370000Y-84950000D02*
X44030000Y-84950000D01*
X41370000Y-97710000D02*
X44030000Y-97710000D01*
X44030000Y-84950000D02*
X44030000Y-97710000D01*
%TO.C,J1*%
X75970000Y-52350000D02*
X77300000Y-52350000D01*
X75970000Y-53680000D02*
X75970000Y-52350000D01*
X75970000Y-54950000D02*
X75970000Y-67710000D01*
X75970000Y-54950000D02*
X78630000Y-54950000D01*
X75970000Y-67710000D02*
X78630000Y-67710000D01*
X78630000Y-54950000D02*
X78630000Y-67710000D01*
%TO.C,U1*%
D12*
X83400000Y-53305000D02*
X96600000Y-53305000D01*
X96600000Y-66505000D01*
X83400000Y-66505000D01*
X83400000Y-53305000D01*
D11*
%TO.C,J2*%
X101370000Y-52350000D02*
X102700000Y-52350000D01*
X101370000Y-53680000D02*
X101370000Y-52350000D01*
X101370000Y-54950000D02*
X101370000Y-67710000D01*
X101370000Y-54950000D02*
X104030000Y-54950000D01*
X101370000Y-67710000D02*
X104030000Y-67710000D01*
X104030000Y-54950000D02*
X104030000Y-67710000D01*
%TO.C,J1*%
X45970000Y-52350000D02*
X47300000Y-52350000D01*
X45970000Y-53680000D02*
X45970000Y-52350000D01*
X45970000Y-54950000D02*
X45970000Y-67710000D01*
X45970000Y-54950000D02*
X48630000Y-54950000D01*
X45970000Y-67710000D02*
X48630000Y-67710000D01*
X48630000Y-54950000D02*
X48630000Y-67710000D01*
%TO.C,U1*%
D12*
X53400000Y-53305000D02*
X66600000Y-53305000D01*
X66600000Y-66505000D01*
X53400000Y-66505000D01*
X53400000Y-53305000D01*
D11*
%TO.C,J2*%
X71370000Y-52350000D02*
X72700000Y-52350000D01*
X71370000Y-53680000D02*
X71370000Y-52350000D01*
X71370000Y-54950000D02*
X71370000Y-67710000D01*
X71370000Y-54950000D02*
X74030000Y-54950000D01*
X71370000Y-67710000D02*
X74030000Y-67710000D01*
X74030000Y-54950000D02*
X74030000Y-67710000D01*
%TO.C,J1*%
X15970000Y-52350000D02*
X17300000Y-52350000D01*
X15970000Y-53680000D02*
X15970000Y-52350000D01*
X15970000Y-54950000D02*
X15970000Y-67710000D01*
X15970000Y-54950000D02*
X18630000Y-54950000D01*
X15970000Y-67710000D02*
X18630000Y-67710000D01*
X18630000Y-54950000D02*
X18630000Y-67710000D01*
%TO.C,U1*%
D12*
X23400000Y-53305000D02*
X36600000Y-53305000D01*
X36600000Y-66505000D01*
X23400000Y-66505000D01*
X23400000Y-53305000D01*
D11*
%TO.C,J2*%
X41370000Y-52350000D02*
X42700000Y-52350000D01*
X41370000Y-53680000D02*
X41370000Y-52350000D01*
X41370000Y-54950000D02*
X41370000Y-67710000D01*
X41370000Y-54950000D02*
X44030000Y-54950000D01*
X41370000Y-67710000D02*
X44030000Y-67710000D01*
X44030000Y-54950000D02*
X44030000Y-67710000D01*
%TO.C,J1*%
X75970000Y-22350000D02*
X77300000Y-22350000D01*
X75970000Y-23680000D02*
X75970000Y-22350000D01*
X75970000Y-24950000D02*
X75970000Y-37710000D01*
X75970000Y-24950000D02*
X78630000Y-24950000D01*
X75970000Y-37710000D02*
X78630000Y-37710000D01*
X78630000Y-24950000D02*
X78630000Y-37710000D01*
%TO.C,U1*%
D12*
X83400000Y-23305000D02*
X96600000Y-23305000D01*
X96600000Y-36505000D01*
X83400000Y-36505000D01*
X83400000Y-23305000D01*
D11*
%TO.C,J2*%
X101370000Y-22350000D02*
X102700000Y-22350000D01*
X101370000Y-23680000D02*
X101370000Y-22350000D01*
X101370000Y-24950000D02*
X101370000Y-37710000D01*
X101370000Y-24950000D02*
X104030000Y-24950000D01*
X101370000Y-37710000D02*
X104030000Y-37710000D01*
X104030000Y-24950000D02*
X104030000Y-37710000D01*
%TO.C,J1*%
X45970000Y-22350000D02*
X47300000Y-22350000D01*
X45970000Y-23680000D02*
X45970000Y-22350000D01*
X45970000Y-24950000D02*
X45970000Y-37710000D01*
X45970000Y-24950000D02*
X48630000Y-24950000D01*
X45970000Y-37710000D02*
X48630000Y-37710000D01*
X48630000Y-24950000D02*
X48630000Y-37710000D01*
%TO.C,U1*%
D12*
X53400000Y-23305000D02*
X66600000Y-23305000D01*
X66600000Y-36505000D01*
X53400000Y-36505000D01*
X53400000Y-23305000D01*
D11*
%TO.C,J2*%
X71370000Y-22350000D02*
X72700000Y-22350000D01*
X71370000Y-23680000D02*
X71370000Y-22350000D01*
X71370000Y-24950000D02*
X71370000Y-37710000D01*
X71370000Y-24950000D02*
X74030000Y-24950000D01*
X71370000Y-37710000D02*
X74030000Y-37710000D01*
X74030000Y-24950000D02*
X74030000Y-37710000D01*
%TO.C,U1*%
D12*
X23400000Y-23305000D02*
X36600000Y-23305000D01*
X36600000Y-36505000D01*
X23400000Y-36505000D01*
X23400000Y-23305000D01*
D11*
%TO.C,J2*%
X41370000Y-22350000D02*
X42700000Y-22350000D01*
X41370000Y-23680000D02*
X41370000Y-22350000D01*
X41370000Y-24950000D02*
X41370000Y-37710000D01*
X41370000Y-24950000D02*
X44030000Y-24950000D01*
X41370000Y-37710000D02*
X44030000Y-37710000D01*
X44030000Y-24950000D02*
X44030000Y-37710000D01*
%TO.C,J1*%
X15970000Y-22350000D02*
X17300000Y-22350000D01*
X15970000Y-23680000D02*
X15970000Y-22350000D01*
X15970000Y-24950000D02*
X15970000Y-37710000D01*
X15970000Y-24950000D02*
X18630000Y-24950000D01*
X15970000Y-37710000D02*
X18630000Y-37710000D01*
X18630000Y-24950000D02*
X18630000Y-37710000D01*
%TD*%
M02*
